<svg fill="none" height="72" viewBox="0 0 72 72" width="72" xmlns="http://www.w3.org/2000/svg">
    <g filter="url(#filter0_d_964_35)">
        <path
            d="M32.2089 14.7474C30.1555 15.5201 28.1268 16.2836 26.1213 17.037C26.0243 17.2371 25.955 17.4218 25.9151 17.5934C29.6575 16.1114 33.1415 14.7671 36.3647 13.5598C36.4089 13.5191 36.4686 13.4128 36.5405 13.2375C36.565 13.1812 36.5683 13.1472 36.5527 13.1343C36.5405 13.1255 36.5025 13.1343 36.4367 13.1567C35.0343 13.6841 33.6433 14.2075 32.2635 14.7268L32.2089 14.7474Z"
            fill="#32B8C4" />
        <path
            d="M31.7134 14.0683C31.7727 13.9423 31.8926 13.8234 32.0728 13.7108C32.2588 13.5925 32.4635 13.5133 32.6881 13.4734C32.777 13.4587 32.8282 13.4527 32.8406 13.4586C32.841 13.4587 32.8413 13.4589 32.8415 13.4591C32.8419 13.4595 32.8426 13.4605 32.8425 13.4611C32.8425 13.4614 32.8423 13.4617 32.8422 13.4621C32.842 13.4626 32.8417 13.4632 32.8414 13.4639C32.8369 13.4734 32.7922 13.4975 32.7055 13.5321C32.2863 13.7043 32.0519 13.8396 32.0035 13.9425C31.9584 14.0382 31.981 14.1075 32.0701 14.1495C32.1194 14.1727 32.171 14.1804 32.2236 14.1713C32.2614 14.1659 32.2858 14.164 32.2939 14.1646C32.2968 14.1724 32.301 14.1781 32.3077 14.1845C32.3006 14.1927 32.2829 14.2164 32.2562 14.2554C32.1129 14.4424 31.9612 14.4979 31.7968 14.4205C31.6613 14.3567 31.6327 14.2394 31.7134 14.0683Z"
            fill="#32B8C4" />
        <path clip-rule="evenodd"
            d="M39.1508 30.1611C39.6915 30.1611 40.2169 29.9513 40.7268 29.5323C40.8739 29.4077 40.949 28.957 40.949 28.1752C40.949 27.7003 40.8273 25.7929 40.5825 22.4499C40.339 19.1074 40.2202 17.1374 40.2202 16.5366C40.2202 15.9925 40.1331 15.5485 39.9638 15.1949C39.9638 15.0044 40.1197 14.5353 40.4387 13.7882C40.4733 13.6973 40.5045 13.6531 40.5392 13.6531C40.5738 13.6531 40.6138 13.7035 40.658 13.804C40.7489 13.9975 40.9582 14.5295 41.2863 15.3988C41.6244 16.3052 41.8308 16.8589 41.8963 17.0619C41.9305 17.2341 41.9496 17.3529 41.9496 17.418C41.9496 17.6686 41.712 17.5222 41.2363 16.9777C41.1804 16.8997 41.152 16.9335 41.152 17.0811C41.152 17.1149 41.2588 18.6004 41.4743 21.5427C41.687 24.4824 41.7962 26.2365 41.7962 26.8023C41.7962 28.4412 41.5023 29.7329 40.9148 30.6705C40.4166 31.4581 39.8316 31.855 39.1604 31.8588V31.8667C38.9256 31.9005 38.6913 31.9017 38.457 31.8667V31.8588C38.2346 31.8584 38.0136 31.8331 37.794 31.7827C37.847 32.5066 37.9076 33.3331 37.9761 34.2621C38.2827 38.4204 38.4354 40.7128 38.4354 41.1411C38.4354 42.4547 38.2325 43.6145 37.826 44.6216C37.7412 44.8252 37.6727 44.9716 37.6224 45.0626C37.5418 45.1909 37.4942 45.2065 37.4785 45.1122C37.4542 45.0157 37.4631 44.8028 37.5037 44.4743C37.5539 44.021 37.5789 43.4957 37.5789 42.8951C37.5789 42.3604 37.4134 39.7655 37.0816 35.1089C36.9791 33.6697 36.8928 32.4302 36.8224 31.3908C36.5875 31.2545 36.3541 31.0884 36.1222 30.8923C35.4856 30.2955 34.8469 29.7014 34.2059 29.1051L33.9929 28.9069C33.902 28.829 33.8458 28.7881 33.8237 28.7881C33.7953 28.7881 33.817 28.8727 33.8925 29.0412C34.1522 29.6416 34.2798 30.0697 34.2798 30.3236C34.2798 31.2805 34.005 32.0026 33.4513 32.4938C33.0544 32.8503 32.1601 33.3251 30.7621 33.9134C29.9045 34.2803 29.2616 34.5676 28.8372 34.7686C27.99 35.163 27.405 35.4853 27.089 35.735C26.5074 36.1882 25.6635 37.055 24.5532 38.3308C23.8937 39.0934 23.2274 39.4782 22.5617 39.4782C22.3685 39.4782 22.1839 39.4481 22.0078 39.388C21.9616 39.586 21.916 39.784 21.8716 39.9821C21.7589 40.5046 21.7026 40.8894 21.7026 41.1363C21.7026 41.9962 21.9903 42.7873 22.5658 43.5095C23.3476 44.4729 24.4768 44.9541 25.9588 44.9541C27.2563 44.9541 28.6351 44.648 30.0956 44.0381C31.2715 43.5501 32.3281 42.9407 33.2665 42.2059C34.1134 41.5489 34.539 41.08 34.539 40.7984C34.539 40.7516 34.3639 40.3858 34.0137 39.6951C33.5943 38.8814 33.2822 38.0875 33.0786 37.3179C33.0006 37.0587 32.9069 36.8836 32.8004 36.7927C32.6939 36.7024 32.641 36.6081 32.641 36.5049C32.641 36.4269 32.719 36.0082 32.8757 35.2515C32.9002 35.1137 32.9347 35.048 32.9789 35.048C33.0258 35.048 33.082 35.0791 33.1479 35.1478C33.3629 35.3859 33.8257 35.8548 34.539 36.5551C34.6516 36.6711 34.7079 36.7614 34.7079 36.8273C34.7079 36.9086 34.6421 36.9459 34.5043 36.9459C34.3579 36.9459 34.1386 36.9025 33.8448 36.8117C33.8666 36.9025 34.1047 37.3993 34.5547 38.3032C34.9176 39.0381 35.0988 39.6727 35.0988 40.2046C35.0988 41.2551 34.8613 42.0525 34.3856 42.5967C34.0537 42.983 33.6526 43.3642 33.1826 43.74C33.148 43.9714 32.9651 44.5339 32.6287 45.4336C32.2568 46.4372 32.0725 47.231 32.0725 47.8126C32.0725 48.2596 32.1755 48.616 32.3852 48.882C32.6046 49.1697 32.9139 49.3169 33.3075 49.3169C34.005 49.3169 34.7088 48.96 35.4213 48.2537C35.6599 47.9685 35.8995 47.6842 36.1389 47.4L36.1406 47.398C36.3525 47.1466 36.5644 46.8951 36.7755 46.6431C37.3634 45.9802 38.1356 45.3894 39.0924 44.8699C39.6523 44.5635 40.6246 44.1194 42.0072 43.5378V43.5428L42.013 43.5378L43.3922 42.9529C43.1954 42.4121 43.0983 41.8593 43.0983 41.2993C43.0983 40.4517 43.2234 39.7696 43.4735 39.2539C43.7266 38.741 44.0585 38.485 44.4712 38.485C44.8369 38.485 45.1808 38.7886 45.5031 39.4015C45.7904 39.9422 45.9376 40.4363 45.9376 40.8774C45.9376 41.996 45.609 42.9158 44.9528 43.6316C45.4185 44.1136 45.9751 44.3546 46.6255 44.3546L46.6284 44.3567V44.3546C47.1696 44.3546 47.6949 44.1449 48.2048 43.7259C48.3512 43.6004 48.4266 43.1505 48.4266 42.3688C48.4266 41.893 48.1736 38.1661 47.6699 31.1896C47.1667 24.2102 46.9161 20.4261 46.9161 19.8386C46.9161 19.2946 46.8198 18.8472 46.6284 18.497C46.6284 18.2943 46.7877 17.8245 47.11 17.0902C47.1446 16.9994 47.1788 16.9552 47.2134 16.9552C47.248 16.9552 47.2884 16.9994 47.3355 17.0902C47.4256 17.2933 47.6386 17.8245 47.9734 18.685C48.3203 19.5881 48.5263 20.148 48.5955 20.364C48.6301 20.5232 48.6485 20.6421 48.6485 20.72C48.6485 20.9677 48.4075 20.8172 47.9326 20.2606C47.8763 20.1826 47.8484 20.2172 47.8484 20.364C47.8484 20.3986 48.086 23.704 48.5609 30.2794C49.0366 36.8586 49.2743 40.43 49.2743 40.9962C49.2743 42.6339 48.9803 43.9256 48.392 44.8641C47.8917 45.6554 47.3043 46.0523 46.6284 46.0523V46.0494L46.6255 46.0523C45.9972 46.0523 45.356 45.7767 44.6993 45.2264C44.3491 44.9325 44.0739 44.6168 43.8767 44.2762L42.013 45.0667L42.0072 45.0638C41.1379 45.4357 40.487 45.7271 40.0589 45.9302C39.2112 46.3246 38.6271 46.646 38.3107 46.8962C37.729 47.3498 36.8848 48.2162 35.7749 49.492C35.1153 50.2546 34.4491 50.6394 33.7832 50.6394C33.2233 50.6394 32.7355 50.3863 32.3164 49.8831C31.8758 49.3578 31.6565 48.7165 31.6565 47.9565C31.6565 46.9306 32.07 45.597 32.8998 43.9593C32.3753 44.3537 31.7741 44.7418 31.0964 45.1232C29.2635 46.1424 27.5561 46.6519 25.9744 46.6519C23.8477 46.6519 22.3846 45.611 21.5812 43.5284C21.4243 43.1219 21.3463 42.6028 21.3463 41.9682C21.3463 41.5489 21.3776 41.1269 21.446 40.6952C21.531 40.1749 21.6418 39.7057 21.7795 39.2909C21.5335 39.1646 21.3053 38.9747 21.0944 38.7215C20.654 38.1961 20.4348 37.5549 20.4348 36.7948C20.4348 35.9527 20.7132 34.9035 21.2721 33.6485L21.0509 33.8307C20.4062 34.3187 19.8185 34.5622 19.2871 34.5622C18.7274 34.5622 18.2394 34.3091 17.8207 33.8057C17.3797 33.2803 17.1604 32.6391 17.1604 31.8791C17.1604 30.8347 17.5893 29.4713 18.4491 27.7925C18.5394 27.6174 18.6086 27.53 18.6581 27.53C18.6833 27.5326 18.6926 27.5578 18.6926 27.5957C18.6926 27.7675 18.5081 28.3524 18.1329 29.356C17.761 30.3597 17.5765 31.1536 17.5765 31.736C17.5765 32.1763 17.6795 32.5332 17.8892 32.8047C18.1145 33.0924 18.4241 33.2397 18.8115 33.2397C19.4527 33.2397 20.0532 33.03 20.6192 32.6113C21.3134 32.0108 22.0104 31.4102 22.7046 30.813C23.8899 29.8079 25.0722 29.0265 26.2492 28.4716C26.0973 27.8686 25.983 27.2613 25.9064 26.6487C25.8847 26.4831 25.8691 26.3825 25.8562 26.3419C25.8224 26.217 25.7504 26.0827 25.6377 25.9354L26.0192 25.0098C26.0788 24.8564 26.1352 24.7819 26.1787 24.7819C26.2193 24.7819 26.2851 24.8564 26.3821 25.0098L27.3573 26.5707C27.489 26.7797 27.5514 26.9329 27.5514 27.03C27.5514 27.0986 27.5201 27.1332 27.4517 27.1332C27.3322 27.1332 27.1199 27.0335 26.8138 26.8359C26.8664 27.1951 26.9586 27.6132 27.0911 28.0888L27.2416 28.0206C27.908 27.7892 28.4801 27.6738 28.9557 27.6738C29.4342 27.6738 29.8157 27.874 30.0938 28.2805C30.3754 28.6835 30.5159 29.2182 30.5159 29.8778C30.5159 30.4282 30.3971 30.8821 30.1596 31.2384C29.9214 31.5947 29.606 31.7731 29.2184 31.7731C28.6802 31.7731 28.1611 31.5106 27.6577 30.9914C27.2825 30.6005 27.0041 30.1812 26.8169 29.734C25.8974 30.1004 24.8401 30.7539 23.6553 31.6918C23.027 32.2052 22.4023 32.7183 21.7786 33.2315C21.6879 33.5053 21.5643 33.8519 21.4073 34.272C21.0354 35.2755 20.8509 36.0694 20.8509 36.651C20.8509 37.0984 20.9541 37.4553 21.1637 37.7204C21.3823 38.0081 21.6924 38.1557 22.0859 38.1557C22.7835 38.1557 23.4872 37.7992 24.1997 37.0921C24.4031 36.8495 24.6071 36.6074 24.811 36.3653L24.8119 36.3643C25.0594 36.0704 25.307 35.7766 25.5535 35.4819C26.1417 34.819 26.9143 34.2278 27.8707 33.7087C28.4277 33.4044 29.3921 32.9632 30.7621 32.3862V32.3837C32.2381 31.7591 33.2078 31.2738 33.6706 30.9332C33.8049 30.8336 33.8516 30.6989 33.8049 30.5267C33.5577 29.6228 32.5387 28.4187 30.7463 26.9152C29.095 25.5826 27.4434 24.2536 25.7919 22.9246L25.78 22.915L25.7792 22.9144L25.6061 22.7751C25.5464 22.7247 25.5151 22.5375 25.5151 22.2152C25.5151 21.7966 25.5592 21.3651 25.6497 20.9177C25.7465 20.4203 25.8653 20.1047 26.0062 19.9767C26.9727 19.1036 29.036 17.9466 32.1943 16.5053C35.3934 15.0415 37.5072 14.3102 38.53 14.3102C38.8331 14.3102 39.0424 14.3698 39.1549 14.4911C39.2709 14.6133 39.3271 14.8197 39.3271 15.1136C39.3271 15.7861 38.9236 16.6241 38.1235 17.6252C37.9755 17.7928 37.827 17.9605 37.6781 18.1285L37.6731 18.1341L37.6725 18.1348C37.5207 18.3061 37.3685 18.4779 37.2162 18.6504C36.7351 19.2104 36.4095 19.6669 36.241 20.0171C36.1284 20.2548 36.0563 20.3736 36.028 20.3736C36 20.3736 36.0159 20.2139 36.0784 19.8983C36.1126 19.7232 36.2469 19.4201 36.4787 18.9911C36.6884 18.5941 36.8443 18.3377 36.9506 18.2189C37.8575 17.1899 38.3982 16.5116 38.5796 16.1893C38.5988 16.158 38.6046 16.1242 38.6046 16.0896C38.6046 15.8953 38.3515 15.8015 37.842 15.8015C37.0353 15.8015 35.1211 16.5053 32.1009 17.9129C29.0832 19.3196 27.016 20.4766 25.9032 21.383C25.8311 21.4464 25.8403 21.4993 25.9374 21.5427C26.9251 22.1493 27.8982 22.7751 28.8551 23.4189C31.1565 24.9798 33.192 26.5183 34.9681 28.0347C35.506 28.5037 36.0409 28.9761 36.5783 29.451C36.619 29.4813 36.6597 29.5106 36.7003 29.539C36.6249 28.3533 36.5875 27.6478 36.5875 27.4232C36.5875 26.8761 36.5034 26.4257 36.3344 26.0754C36.3344 25.8536 36.4906 25.3846 36.8067 24.668C36.8754 24.5085 36.9506 24.512 37.0288 24.6747C37.1196 24.8683 37.3286 25.4002 37.6536 26.2695C38.0011 27.1761 38.2014 27.7326 38.2577 27.9423C38.3011 28.1017 38.3261 28.2206 38.3261 28.2986C38.3261 28.5489 38.0853 28.399 37.6041 27.8486C37.5478 27.7699 37.5193 27.8045 37.5193 27.9518C37.5193 27.98 37.5682 28.6743 37.6667 30.0338C37.9299 30.1187 38.1911 30.1612 38.4499 30.1611V30.1577C38.6905 30.2007 38.924 30.2015 39.1508 30.1611ZM29.2931 30.0754C29.5123 30.0754 29.6249 30.0156 29.6249 29.8969C29.6249 29.7218 29.4682 29.5684 29.156 29.4375C28.9246 29.3431 28.5494 29.3403 28.0301 29.4307C28.305 29.8596 28.7271 30.0754 29.2931 30.0754ZM45.506 41.6054C45.506 41.4182 45.3593 41.1305 45.0716 40.7394C44.7556 40.32 44.4804 40.1136 44.249 40.1136C44.0739 40.1136 43.9017 40.2203 43.7328 40.4363C43.5644 40.6485 43.4798 40.852 43.4798 41.0454C43.4798 41.2084 43.5707 41.4961 43.7579 41.9026C43.9175 42.2587 44.0397 42.4997 44.1302 42.6218C44.3678 42.5093 44.6401 42.35 44.9461 42.1403C45.3184 41.8905 45.506 41.7121 45.506 41.6054Z"
            fill="#32B8C4" fill-rule="evenodd" />
        <path
            d="M43.1452 16.2468C43.314 16.5971 43.3983 17.0468 43.3983 17.5946C43.3983 18.0634 43.5611 20.6272 43.8922 25.2803C44.224 29.9362 44.3897 32.5318 44.3897 33.0665C44.3897 33.6671 44.3645 34.1924 44.315 34.6457C44.2744 34.9742 44.2648 35.1864 44.2898 35.2836C44.3055 35.3772 44.3524 35.3616 44.4337 35.2333C44.4834 35.143 44.5525 34.9959 44.6366 34.793C45.0431 33.7859 45.2467 32.6254 45.2467 31.3125C45.2467 30.8842 45.0933 28.5918 44.7867 24.4328C44.4806 20.277 44.3307 18.1727 44.3307 18.1225C44.3307 17.9759 44.3585 17.9413 44.4147 18.0193C44.8966 18.5697 45.1367 18.7203 45.1367 18.47C45.1367 18.392 45.1124 18.2731 45.0683 18.1137C45.012 17.904 44.8117 17.3475 44.4649 16.4402C44.1392 15.5709 43.9302 15.0397 43.8394 14.8458C43.7612 14.6834 43.686 14.6799 43.6174 14.8394C43.3019 15.5554 43.1452 16.0243 43.1452 16.2468Z"
            fill="#32B8C4" />
        <path
            d="M25.6624 34.0757V33.0876C25.8123 33.1406 26.1061 33.1968 26.5378 33.2566C26.9693 33.3164 27.2068 33.3346 27.2537 33.3129C27.2883 33.2973 27.3074 33.2505 27.3074 33.1724V31.9367C27.3074 31.8804 27.2917 31.8491 27.2633 31.8465C26.7318 31.79 26.2067 31.7088 25.6841 31.6056C25.6216 31.5934 25.587 31.6306 25.5809 31.7209C25.5531 32.0121 25.5464 32.3527 25.5592 32.7436C25.0056 32.675 24.4992 32.597 24.0426 32.5122C23.9801 32.5027 23.9455 32.5407 23.9394 32.6283C23.8641 33.3407 23.8701 33.7852 23.9551 33.9569C23.9768 34.0038 24.2455 34.0634 24.7618 34.1415C25.2741 34.2168 25.5592 34.2413 25.6087 34.2168C25.6433 34.1978 25.6624 34.1537 25.6624 34.0757Z"
            fill="#32B8C4" />
        <path
            d="M29.6237 42.1967C29.8611 41.8275 29.9798 41.499 29.9798 41.2114C29.9798 40.8205 29.8238 40.6271 29.5144 40.6271C29.139 40.6271 28.9043 40.8646 28.8011 41.3396C28.7855 41.4367 28.7733 41.4963 28.7672 41.518C28.7855 41.5242 28.7983 41.5303 28.8106 41.5432C28.8263 41.5364 28.8702 41.5119 28.9354 41.4678C29.0264 41.4054 29.1296 41.3741 29.2422 41.3741C29.4451 41.3741 29.549 41.4834 29.549 41.7026C29.549 41.9368 29.23 42.3968 28.5982 43.0877C28.4665 43.2281 28.4041 43.313 28.4041 43.3347C28.4041 43.3408 28.4041 43.3441 28.4102 43.3441C28.4387 43.3441 28.529 43.2878 28.6823 43.1814C29.0671 42.9091 29.3799 42.5815 29.6237 42.1967Z"
            fill="#32B8C4" />
        <path
            d="M34.7774 19.3813C35.0149 19.0122 35.1335 18.6837 35.1335 18.396C35.1335 18.0051 34.9775 17.8118 34.6681 17.8118C34.2927 17.8118 34.058 18.0492 33.9548 18.5242C33.9392 18.6213 33.927 18.6809 33.9209 18.7026C33.9392 18.7089 33.952 18.7149 33.9644 18.7278C33.98 18.721 34.024 18.6965 34.0891 18.6524C34.1801 18.59 34.2833 18.5588 34.3959 18.5588C34.5988 18.5588 34.7027 18.668 34.7027 18.8873C34.7027 19.1215 34.3837 19.5815 33.7519 20.2724C33.6202 20.4127 33.5579 20.4977 33.5579 20.5194C33.5579 20.5255 33.5579 20.5288 33.5639 20.5288C33.5924 20.5288 33.6828 20.4725 33.836 20.366C34.2208 20.0938 34.5337 19.7661 34.7774 19.3813Z"
            fill="#32B8C4" />
        <path
            d="M34.3287 45.7904C34.2621 46.2242 34.2874 46.5726 34.4045 46.8354C34.5636 47.1924 34.7848 47.3055 35.0674 47.1795C35.4103 47.0267 35.528 46.7143 35.4289 46.2384C35.4037 46.1434 35.3905 46.084 35.3873 46.0617C35.368 46.0634 35.3538 46.0631 35.3373 46.0563C35.3258 46.0689 35.2956 46.1092 35.2541 46.176C35.1963 46.27 35.1148 46.3406 35.012 46.3864C34.8267 46.469 34.6873 46.4115 34.598 46.2112C34.5027 45.9973 34.6068 45.4473 34.9026 44.5591C34.9658 44.3773 34.9882 44.2743 34.9793 44.2544C34.9768 44.2489 34.9755 44.2459 34.9699 44.2484C34.9439 44.2599 34.8843 44.3481 34.7877 44.5078C34.5471 44.9131 34.3947 45.3397 34.3287 45.7904Z"
            fill="#32B8C4" />
        <path
            d="M38.6572 20.8289C38.8946 20.4598 39.0133 20.1313 39.0133 19.8436C39.0133 19.4527 38.8573 19.2594 38.5479 19.2594C38.1725 19.2594 37.9378 19.4969 37.8346 19.9718C37.8189 20.0689 37.8068 20.1285 37.8007 20.1502C37.8189 20.1565 37.8318 20.1626 37.8441 20.1754C37.8598 20.1686 37.9037 20.1441 37.9689 20.1C38.0599 20.0376 38.1631 20.0064 38.2757 20.0064C38.4786 20.0064 38.5825 20.1156 38.5825 20.3349C38.5825 20.5691 38.2635 21.0291 37.6317 21.72C37.5 21.8603 37.4376 21.9453 37.4376 21.967C37.4376 21.9731 37.4376 21.9764 37.4437 21.9764C37.4722 21.9764 37.5625 21.9201 37.7158 21.8136C38.1006 21.5414 38.4134 21.2137 38.6572 20.8289Z"
            fill="#32B8C4" />
        <path
            d="M18.4933 25.1085C18.4401 25.3446 18.4408 25.5371 18.4952 25.6861C18.5691 25.8885 18.6865 25.9591 18.8467 25.9006C19.0411 25.8296 19.1177 25.6622 19.0813 25.3968C19.0711 25.3435 19.0661 25.3104 19.0651 25.298C19.0545 25.2982 19.0467 25.2975 19.0379 25.2932C19.0311 25.2996 19.0129 25.3206 18.9876 25.3558C18.9522 25.4053 18.9047 25.441 18.8464 25.4623C18.7413 25.5007 18.6669 25.4637 18.6254 25.3502C18.5811 25.2289 18.6593 24.9304 18.8558 24.4532C18.8975 24.3556 18.9137 24.2998 18.9096 24.2886C18.9084 24.2854 18.9078 24.2837 18.9047 24.2849C18.8899 24.2903 18.8538 24.3365 18.7946 24.4206C18.6468 24.6343 18.5468 24.8632 18.4933 25.1085Z"
            fill="#32B8C4" />
        <path
            d="M20.822 27.26C21.0057 26.9752 21.0973 26.7218 21.0973 26.4998C21.0973 26.1983 20.9764 26.0491 20.7377 26.0491C20.4482 26.0491 20.2676 26.2323 20.1874 26.5987C20.1754 26.6736 20.166 26.7197 20.1613 26.7365C20.1754 26.7412 20.1854 26.7459 20.1948 26.7558C20.2069 26.7506 20.2409 26.7317 20.2917 26.6976C20.3612 26.6495 20.4408 26.6254 20.5277 26.6254C20.6848 26.6254 20.7644 26.7097 20.7644 26.8788C20.7644 27.0595 20.5183 27.4143 20.0309 27.9473C19.9293 28.0556 19.8812 28.1211 19.8812 28.1379C19.8812 28.1426 19.8812 28.1451 19.8859 28.1451C19.9079 28.1451 19.9781 28.1017 20.0959 28.0196C20.3926 27.8095 20.634 27.5568 20.822 27.26Z"
            fill="#32B8C4" />
        <path
            d="M26.1259 44.1305C26.0354 44.2172 25.943 44.2603 25.8426 44.2603C25.626 44.2603 25.5174 44.1403 25.5174 43.9023C25.5174 43.6873 25.6178 43.4335 25.8208 43.1382C25.9982 42.8742 26.1652 42.6929 26.323 42.5985C26.3546 42.581 26.3742 42.581 26.3819 42.6023C26.3918 42.628 26.384 42.6557 26.3546 42.689C26.2345 42.7993 26.1123 42.9489 25.9921 43.1382C25.8563 43.3407 25.7892 43.4907 25.7892 43.5869C25.8503 43.536 25.9213 43.5121 26.002 43.5121C26.187 43.5121 26.2797 43.5929 26.2797 43.7583C26.2797 43.9078 26.2284 44.0321 26.1259 44.1305Z"
            fill="#32B8C4" />
        <path
            d="M23.9049 19.4764C24.1425 19.1072 24.2619 18.7794 24.2619 18.4917C24.2619 18.1008 24.1052 17.9068 23.7958 17.9068C23.4204 17.9068 23.1857 18.1443 23.0825 18.6199C23.0668 18.7163 23.0547 18.7761 23.0486 18.7978C23.0668 18.8039 23.0797 18.8107 23.092 18.8228C23.1077 18.8167 23.1516 18.7917 23.2175 18.7483C23.3078 18.6851 23.411 18.654 23.5236 18.654C23.7272 18.654 23.8304 18.7638 23.8304 18.9823C23.8304 19.2172 23.5114 19.6765 22.8796 20.3674C22.7479 20.5084 22.6855 20.5927 22.6855 20.6144C22.6855 20.6212 22.6855 20.6238 22.6916 20.6238C22.7201 20.6238 22.8104 20.5675 22.9637 20.4617C23.3484 20.1895 23.6613 19.8611 23.9049 19.4764Z"
            fill="#32B8C4" />
        <path
            d="M28.5772 15.5398C28.7586 15.4291 28.8797 15.3115 28.9404 15.1862C29.0229 15.0159 28.9955 14.8984 28.8608 14.8331C28.6972 14.7539 28.5449 14.8078 28.3996 14.9932C28.3725 15.0319 28.3545 15.0554 28.3473 15.0636C28.354 15.0701 28.3582 15.0758 28.361 15.0837C28.3691 15.0843 28.3935 15.0827 28.4313 15.0776C28.484 15.0692 28.5355 15.0774 28.5846 15.1011C28.6732 15.1441 28.695 15.2137 28.6489 15.3089C28.5994 15.4112 28.3635 15.544 27.9426 15.7116C27.8554 15.7453 27.8105 15.7689 27.8059 15.7783C27.8045 15.7813 27.8039 15.7824 27.8066 15.7837C27.819 15.7897 27.8702 15.7842 27.9593 15.7705C28.1843 15.7331 28.3899 15.6561 28.5772 15.5398Z"
            fill="#32B8C4" />
        <path
            d="M35.1942 34.4656C35.3043 34.4656 35.4056 34.4183 35.505 34.3231C35.6174 34.2153 35.6737 34.0789 35.6737 33.9149C35.6737 33.7334 35.5719 33.6449 35.369 33.6449C35.2804 33.6449 35.2026 33.671 35.1356 33.7268C35.1356 33.6214 35.2092 33.4568 35.3582 33.2347C35.49 33.027 35.624 32.8629 35.7558 32.742C35.7881 32.7054 35.7966 32.675 35.7858 32.6468C35.7773 32.6234 35.7558 32.6234 35.7211 32.6426C35.5481 32.7462 35.3648 32.945 35.1703 33.2347C34.9476 33.5586 34.8374 33.837 34.8374 34.0728C34.8374 34.3339 34.9566 34.4656 35.1942 34.4656Z"
            fill="#32B8C4" />
        <path
            d="M22.6346 36.8897C22.7351 36.8897 22.8274 36.8462 22.918 36.7599C23.0206 36.6611 23.072 36.5372 23.072 36.3875C23.072 36.2222 22.9792 36.1414 22.7941 36.1414C22.7133 36.1414 22.6424 36.1649 22.5813 36.2162C22.5813 36.1196 22.6483 35.97 22.7843 35.7671C22.9043 35.5781 23.0265 35.4286 23.1467 35.3183C23.1762 35.2845 23.1839 35.2571 23.174 35.2315C23.1664 35.2098 23.1467 35.2098 23.1151 35.2277C22.9574 35.3221 22.7902 35.5033 22.6129 35.7671C22.4099 36.0624 22.3095 36.3166 22.3095 36.5312C22.3095 36.7697 22.418 36.8897 22.6346 36.8897Z"
            fill="#32B8C4" />
        <path
            d="M40.7451 37.7181C40.7558 37.6942 40.769 37.6768 40.7798 37.6637C40.7924 37.6576 40.7971 37.6595 40.7971 37.6703C40.8013 37.681 40.8013 37.7008 40.7971 37.7289C40.6931 38.3031 40.5206 38.5905 40.2829 38.5905C40.0279 38.5905 39.9027 38.3791 39.9027 37.9576C39.9027 37.4373 40.0518 36.8926 40.3518 36.3225C40.4277 36.1819 40.4708 36.1088 40.4882 36.1064C40.4892 36.1064 40.4902 36.107 40.491 36.1078C40.4913 36.1082 40.4919 36.109 40.4921 36.1094L40.4924 36.1107C40.4924 36.1388 40.4708 36.219 40.4277 36.3525C40.2332 36.9469 40.1361 37.3613 40.1361 37.599C40.1361 37.9229 40.2224 38.0874 40.3996 38.0874C40.5008 38.0874 40.6153 37.9642 40.7451 37.7181Z"
            fill="#32B8C4" />
        <path
            d="M19.5189 37.8872C19.5346 37.8466 19.5537 37.8214 19.5691 37.8092C19.5815 37.7997 19.5909 37.8031 19.5943 37.8188C19.6004 37.8344 19.6004 37.8622 19.5943 37.9029C19.5563 38.2253 19.4627 38.513 19.3188 38.7694C19.175 39.0225 19.0188 39.1509 18.8499 39.1509C18.662 39.1535 18.5214 39.0598 18.4245 38.8597C18.3309 38.6629 18.2867 38.3969 18.2996 38.0623C18.3152 37.6558 18.44 37.134 18.6714 36.4961C18.8689 35.952 19.044 35.5705 19.1967 35.3514C19.2936 35.2197 19.3501 35.1511 19.3657 35.1485C19.3718 35.1702 19.3473 35.2448 19.291 35.3764C18.9497 36.1332 18.7372 36.8334 18.6531 37.4713C18.6403 37.5433 18.6375 37.6185 18.6375 37.6904C18.6375 38.2001 18.7624 38.4437 19.0188 38.4219C19.1722 38.403 19.3378 38.2253 19.5189 37.8872Z"
            fill="#32B8C4" />
        <path
            d="M20.1498 21.9227C20.3724 21.9227 20.597 22.1382 20.8221 22.5691C21.0259 22.9644 21.1661 23.405 21.248 23.8918L21.2493 23.9008L21.2514 23.9143L21.2538 23.9295C21.2574 23.9531 21.2597 23.9673 21.2597 23.9736C21.2693 23.9853 21.2738 23.9853 21.2784 23.9736C21.283 23.9645 21.2947 23.9386 21.3114 23.8918C21.3698 23.4725 21.4847 22.9202 21.6534 22.2316C21.8145 21.8475 21.9904 21.6555 22.1799 21.6555C22.2785 21.6555 22.3745 21.7216 22.4726 21.8526C22.5569 21.9669 22.599 22.0584 22.599 22.1311C22.599 22.1875 22.5848 22.2577 22.5549 22.3465C22.5173 22.4659 22.4726 22.5243 22.4212 22.5243C22.3999 22.5243 22.3532 22.4802 22.2831 22.3887C22.2103 22.2972 22.1357 22.253 22.0605 22.253C21.904 22.253 21.7256 22.8008 21.5269 23.8963C21.4634 24.2455 21.3933 24.4915 21.316 24.6342C21.2621 24.7323 21.2154 24.7816 21.1778 24.7816C21.1427 24.7816 21.1265 24.7373 21.1265 24.6485C21.1265 24.5031 21.035 24.1586 20.8546 23.618C20.6677 23.0585 20.5432 22.7794 20.4801 22.7794C20.4334 22.7794 20.4029 22.7937 20.3912 22.8242C20.3769 22.8522 20.3393 22.8684 20.2764 22.8684C20.2036 22.8684 20.1102 22.8146 19.9928 22.7093C19.8759 22.6042 19.8195 22.5173 19.8195 22.4542C19.8195 22.4264 19.8668 22.3302 19.9648 22.1662C20.0634 22.002 20.1239 21.9227 20.1498 21.9227Z"
            fill="#32B8C4" />
        <path
            d="M49.8965 23.1848C49.8965 22.6311 49.8089 22.184 49.6399 21.8459C49.6399 21.618 49.7961 21.1456 50.115 20.4297C50.1809 20.2702 50.2561 20.2735 50.3341 20.4358C50.4251 20.6298 50.6341 21.1613 50.9626 22.0306C51.3066 22.9377 51.5102 23.4969 51.5658 23.7127C51.6099 23.8635 51.6351 23.9821 51.6351 24.0601C51.6351 24.3195 51.3907 24.1694 50.9096 23.6097C50.8534 23.5411 50.8249 23.5784 50.8249 23.7195C50.8249 23.7725 51.0033 26.2398 51.3568 31.121C51.7096 36.0049 51.8882 38.663 51.8882 39.0912C51.8882 40.4205 51.6853 41.5803 51.2849 42.5689C51.2001 42.7753 51.1315 42.9219 51.0785 43.0128C50.9998 43.141 50.9531 43.1566 50.9347 43.063C50.9122 42.9659 50.9218 42.7529 50.9626 42.4251C51.0128 41.9711 51.0406 41.4432 51.0406 40.8392C51.0406 40.3079 50.8499 37.3498 50.4686 31.9712C50.0871 26.59 49.8965 23.6599 49.8965 23.1848Z"
            fill="#32B8C4" />
        <path
            d="M29.0642 38.1411C29.039 38.1255 29.039 38.0909 29.0642 38.0407L29.605 36.9279C29.6396 36.8586 29.6769 36.8275 29.715 36.8275C29.7713 36.8275 30.0148 36.9746 30.4465 37.2685C30.8747 37.5623 31.0905 37.7346 31.0905 37.7841C31.0905 37.9784 30.8998 38.3786 30.5217 38.9915C30.475 39.0695 30.4274 39.0884 30.3779 39.0511C29.9525 38.7254 29.5148 38.4255 29.0642 38.1411Z"
            fill="#32B8C4" />
        <path
            d="M44.0958 36.9216L44.5275 36.0301C44.562 35.9615 44.5994 35.9302 44.64 35.9302C44.6963 35.9302 44.9373 36.0768 45.3681 36.3714C45.797 36.6652 46.0128 36.8368 46.0128 36.887C46.0128 37.0811 45.8222 37.4808 45.4435 38.0909C45.3994 38.1663 45.3499 38.1846 45.2997 38.15C44.9277 37.8752 44.5058 37.584 44.036 37.2779C43.8765 37.6342 43.724 37.9375 43.5706 38.188C43.5265 38.266 43.477 38.285 43.4268 38.2469C43.0012 37.9219 42.5636 37.622 42.1129 37.337C42.0884 37.3213 42.0884 37.2875 42.1129 37.2373L42.6544 36.1237C42.6885 36.0551 42.7263 36.024 42.7637 36.0205C42.8167 36.024 43.0229 36.1426 43.3827 36.3869C43.7457 36.6306 43.9832 36.809 44.0958 36.9216Z"
            fill="#32B8C4" />
        <path clip-rule="evenodd"
            d="M42.4965 32.9498C42.0062 32.695 41.7595 32.4281 41.7595 32.1486C41.7595 31.813 41.9176 31.5047 42.225 31.2254C42.5369 30.9461 42.796 30.8416 43.0024 30.918C43.1763 30.9785 43.2615 31.1649 43.2615 31.4766C43.2615 31.7559 43.2044 32.0714 43.0877 32.4202C43.3344 32.5614 43.4927 32.6829 43.5532 32.7802C43.5532 32.9138 43.4434 33.136 43.2212 33.4522C43.1605 33.3548 43.0103 33.2336 42.7715 33.0877C42.4965 33.4681 42.1486 33.8167 41.7278 34.1277C41.25 34.4801 40.8081 34.747 40.4076 34.9254C40.3266 34.9658 39.8611 35.1442 39.0196 35.4561C38.886 35.5042 38.8008 35.5289 38.7561 35.5289C38.7358 35.5289 38.728 35.5211 38.728 35.5123C38.728 35.4797 38.8008 35.4156 38.9468 35.3225C39.5694 34.9535 40.1933 34.5811 40.8204 34.2051C41.5697 33.7517 42.1283 33.3346 42.4965 32.9498ZM42.796 32.2664C42.8444 32.1162 42.8531 31.9624 42.8284 31.8088C42.796 31.6383 42.7186 31.5576 42.5974 31.5576C42.5412 31.5576 42.4605 31.5864 42.3629 31.6383C42.2619 31.6954 42.2093 31.748 42.2093 31.8009C42.2093 31.9221 42.4076 32.0802 42.796 32.2664Z"
            fill="#32B8C4" fill-rule="evenodd" />
        <path clip-rule="evenodd"
            d="M41.8225 40.3627C41.8225 40.74 41.6938 41.1007 41.436 41.4414C41.1616 41.8133 40.837 41.9991 40.4706 41.9991C40.0886 41.9991 39.8971 41.8133 39.8971 41.4414C39.8971 41.1736 40.0473 40.7805 40.3464 40.2698C40.6509 39.7534 40.9096 39.5013 41.1258 39.5013C41.3119 39.5013 41.4776 39.583 41.6164 39.7433C41.7509 39.9091 41.8225 40.1152 41.8225 40.3627ZM41.4922 40.7862C41.4922 40.4398 41.2502 40.2652 40.7754 40.2652C40.708 40.2652 40.595 40.3727 40.4347 40.5901C40.2747 40.8117 40.1973 40.962 40.1973 41.0491C40.2532 41.1736 40.4293 41.2352 40.7338 41.2352C41.2402 41.2352 41.4922 41.085 41.4922 40.7862Z"
            fill="#32B8C4" fill-rule="evenodd" />
        <path
            d="M39.3112 22.5135C39.5393 22.5135 39.6554 22.6234 39.6554 22.848C39.6554 22.9674 39.6241 23.0923 39.561 23.2205C39.5202 23.3081 39.4172 23.4486 39.2515 23.6487C39.014 23.9209 38.858 24.1115 38.7765 24.2243C38.6422 24.4027 38.5634 24.493 38.5416 24.493C38.539 24.493 38.5356 24.4868 38.5356 24.4807C38.5356 24.459 38.5573 24.3992 38.5981 24.2962C38.6889 24.0709 38.8328 23.8455 39.0392 23.6114C39.1545 23.4832 39.2766 23.3515 39.3988 23.2205C39.352 23.1079 39.2799 23.0516 39.1769 23.0516C39.105 23.0516 39.014 23.0767 38.9108 23.1296C37.8759 23.6548 36.8784 23.9209 35.9183 23.9209C35.3896 23.9209 34.9112 23.8056 34.483 23.5768C34.5455 23.7769 34.5238 24.0146 34.4171 24.2962C34.3765 24.4054 34.3487 24.465 34.3296 24.4678C34.3202 24.4678 34.3141 24.3992 34.3141 24.2649C34.3141 24.0146 34.2733 23.7986 34.1953 23.6175C34.1857 23.5957 34.0548 23.3984 33.8077 23.0325C33.8486 22.7794 33.9109 22.6547 33.9952 22.6547C34.0046 22.6547 34.0671 22.6981 34.1858 22.789C34.327 22.9043 34.4708 22.9987 34.6174 23.0767C35.0524 23.3048 35.5307 23.4208 36.0465 23.4208C36.5907 23.4208 37.1159 23.3426 37.6223 23.1859C37.9194 23.0923 38.2731 22.945 38.6822 22.7448C39.0046 22.5888 39.2143 22.5135 39.3112 22.5135Z"
            fill="#32B8C4" />
        <path
            d="M27.557 39.6978C27.557 39.8043 27.4227 40.0418 27.1566 40.4172C26.8533 40.8366 26.5663 41.146 26.2942 41.34C26.1191 41.4615 25.5403 41.6555 24.5556 41.9156C24.3805 41.959 24.2923 41.9745 24.2923 41.9651C24.3051 41.9467 24.3642 41.8965 24.4742 41.8117C24.6024 41.712 24.9526 41.5152 25.5247 41.2118C26.075 40.9207 26.3973 40.7334 26.4909 40.6519C26.5065 40.633 26.5161 40.6174 26.5161 40.6017C26.5161 40.4707 26.0248 40.4077 25.0495 40.4077C25.0462 40.4077 24.859 40.4145 24.4863 40.4301C24.3086 40.4395 24.2211 40.4266 24.2211 40.3955C24.2211 40.3703 24.2428 40.3201 24.2862 40.2421L24.6336 39.6544C24.7368 39.4821 24.9213 39.3761 25.1901 39.3294C25.2872 39.3138 25.5125 39.307 25.8686 39.307C26.9945 39.307 27.557 39.4352 27.557 39.6978Z"
            fill="#32B8C4" />
        <path
            d="M32.8546 20.4223C32.8546 20.3347 32.7983 20.256 32.6823 20.1909C32.5669 20.125 32.3885 20.0937 32.1475 20.0937C31.5911 20.0937 31.0564 20.256 30.5432 20.5878C30.3275 20.7256 30.2182 20.8538 30.2182 20.9726C30.2182 21.1192 30.3811 21.2848 30.7001 21.4727C31.1968 21.7007 31.5876 21.8669 31.8727 21.9668C32.2853 22.2076 32.4665 22.4233 32.417 22.6169C32.2792 22.5828 31.9229 22.4668 31.3474 22.2666C30.7001 22.0448 30.2997 21.8853 30.1402 21.7917C29.765 21.5759 29.5275 21.373 29.4243 21.1884C29.4087 21.2474 29.4019 21.3133 29.4019 21.3817C29.4019 21.7571 29.5777 22.0448 29.9244 22.2484C30.3466 22.492 31.0719 22.739 32.1102 22.9893C32.176 23.005 32.2949 22.9391 32.4665 22.7925C32.6571 22.6297 32.7603 22.4668 32.7766 22.3047C32.8044 22.0353 32.6388 21.7978 32.2818 21.5881C32.2167 21.5542 32.0416 21.4821 31.7506 21.3791C31.4627 21.2759 31.2253 21.1694 31.0441 21.0628C30.8033 20.9257 30.6845 20.8253 30.681 20.7594C30.6845 20.7221 30.7183 20.691 30.7937 20.6625C31.0156 20.575 31.3095 20.522 31.6724 20.503C32.0131 20.4813 32.2228 20.4942 32.3009 20.5376C32.4135 20.6658 32.4698 20.7568 32.4665 20.8131C32.5071 20.8348 32.6076 20.7629 32.7698 20.6C32.8261 20.5437 32.8546 20.4846 32.8546 20.4223Z"
            fill="#32B8C4" />
        <path
            d="M33.511 33.9447C32.8078 34.2065 32.1119 34.4654 31.4235 34.7215L31.4129 34.7255C29.9925 35.2539 28.6038 35.7706 27.2476 36.2771C27.1505 36.4805 27.0821 36.6652 27.0412 36.8342C27.2761 36.693 28.4046 36.2491 30.4274 35.4953C32.4104 34.7543 33.414 34.3729 33.4357 34.3477C33.4825 34.3132 33.5422 34.2039 33.6142 34.0262C33.6393 33.9697 33.6419 33.9352 33.6265 33.9223C33.6141 33.9134 33.5768 33.9223 33.511 33.9447Z"
            fill="#32B8C4" />
        <path
            d="M24.8606 24.6168C25.158 24.4154 25.3214 24.2786 25.3506 24.2008C25.4227 24.0087 25.0465 23.7607 24.2233 23.4518C23.9622 23.3539 23.7963 23.2973 23.721 23.2821C23.5111 23.2424 23.3475 23.2699 23.2249 23.3671L22.8097 23.7016C22.7565 23.7467 22.7264 23.7772 22.7195 23.7955C22.7109 23.8184 22.7714 23.8518 22.9045 23.8939C23.1807 23.9845 23.32 24.0311 23.3219 24.0318C24.0356 24.2995 24.3775 24.4804 24.3416 24.5762C24.3373 24.5876 24.326 24.5964 24.3094 24.606C24.218 24.6397 23.9316 24.6884 23.4493 24.7503C22.9478 24.8152 22.6372 24.8629 22.5166 24.9008C22.4129 24.9326 22.356 24.9531 22.3415 24.9631C22.3389 24.9699 22.4073 24.9825 22.5472 24.9988C23.339 25.079 23.815 25.0957 23.9762 25.0549C24.2285 24.9877 24.5237 24.8404 24.8606 24.6168Z"
            fill="#32B8C4" />
        <path
            d="M24.5945 28.0608C24.5881 27.6995 24.5334 27.4609 24.4347 27.3401C24.2272 27.0861 23.8411 27.144 23.2722 27.5101C23.1779 27.5771 23.1391 27.6188 23.1546 27.6378C23.1644 27.6498 23.2553 27.6526 23.4259 27.6477C23.5972 27.6423 23.7001 27.6612 23.738 27.7076C23.8143 27.801 23.8431 27.9363 23.8251 28.117C23.5514 27.9329 23.3435 27.8237 23.1954 27.7948C22.8944 27.7359 22.5774 27.8403 22.2524 28.1058C22.153 28.187 21.8313 28.5639 21.2833 29.238C20.7349 29.9131 20.2304 30.4442 19.7628 30.8262C19.4806 31.0567 19.3493 31.1852 19.3669 31.2067C19.3827 31.2138 19.4384 31.1941 19.5406 31.1476C19.8305 30.9982 20.0948 30.8282 20.3333 30.6334C21.1441 29.9711 21.8507 29.1619 22.4554 28.2089C22.6442 28.2193 22.8795 28.3115 23.1599 28.4901L23.184 28.5076L23.1849 28.5082C23.3906 28.6573 23.5968 28.8067 23.8033 28.9499C23.8329 28.9673 23.9393 28.9521 24.1239 28.8999C24.3075 28.8529 24.4139 28.8119 24.4451 28.7817C24.5519 28.6586 24.6044 28.42 24.5945 28.0608Z"
            fill="#32B8C4" />
        <path
            d="M53.272 27.1621C53.5563 26.721 53.7002 26.3274 53.7002 25.98C53.7002 25.5111 53.5129 25.2797 53.1405 25.2797C52.6931 25.2797 52.4089 25.5641 52.284 26.1333C52.2651 26.2487 52.2527 26.3206 52.2434 26.3491C52.2651 26.3552 52.2805 26.3647 52.2962 26.3769C52.3153 26.3708 52.3655 26.3396 52.4463 26.2867C52.5561 26.2113 52.6777 26.174 52.8126 26.174C53.0597 26.174 53.1811 26.305 53.1811 26.571C53.1811 26.8493 52.7998 27.4031 52.0398 28.2316C51.8871 28.4006 51.8084 28.5003 51.8084 28.5253C51.8084 28.5316 51.8117 28.5376 51.8177 28.5376C51.8525 28.5376 51.959 28.4725 52.1428 28.3441C52.603 28.0191 52.981 27.6249 53.272 27.1621Z"
            fill="#32B8C4" />
        <path
            d="M41.842 47.0833C41.5915 46.7079 41.3072 46.5206 40.9917 46.5206C40.9571 46.5206 40.8756 46.6266 40.7447 46.8456C40.613 47.0642 40.5506 47.1926 40.5506 47.2304C40.5506 47.3147 40.626 47.43 40.782 47.5711C40.938 47.7116 41.0636 47.7836 41.1607 47.7836C41.2448 47.7836 41.295 47.7618 41.3134 47.7245C41.3289 47.6839 41.3697 47.6647 41.4321 47.6647C41.5231 47.6647 41.673 47.9335 41.8888 48.475C42.1045 49.0159 42.2112 49.3783 42.2112 49.5663C42.2112 49.6849 42.2329 49.744 42.2796 49.744C42.3299 49.744 42.3924 49.6789 42.4643 49.5472C42.5673 49.3566 42.661 49.0281 42.7459 48.5625C42.9365 47.4959 43.1462 46.9612 43.3708 46.9612C43.474 46.9612 43.5744 47.0208 43.668 47.1429C43.7651 47.2645 43.8275 47.3269 43.856 47.3269C43.9246 47.3269 43.9844 47.2461 44.0339 47.0894C44.0745 46.9705 44.0935 46.8736 44.0935 46.7989C44.0935 46.7018 44.0372 46.5797 43.9246 46.4263C43.7936 46.2513 43.6654 46.1638 43.5337 46.1638C43.2806 46.1638 43.0458 46.4202 42.83 46.936C42.6332 47.6526 42.5083 48.1934 42.4581 48.5558C42.4485 48.5797 42.4409 48.6 42.4347 48.6164C42.4246 48.6432 42.4183 48.6598 42.4141 48.6657C42.4079 48.684 42.4018 48.684 42.3896 48.6657C42.3896 48.6596 42.3868 48.6419 42.3823 48.6133L42.3787 48.5907L42.3758 48.5719L42.3733 48.5558C42.2701 47.9491 42.0952 47.4585 41.842 47.0833Z"
            fill="#32B8C4" />
        <path
            d="M53.1288 31.3992C52.9131 30.9833 52.6973 30.7769 52.4815 30.7769C52.4563 30.7769 52.3973 30.8551 52.3029 31.0111C52.2128 31.1678 52.1659 31.2614 52.1659 31.2901C52.1659 31.349 52.2222 31.4305 52.3314 31.5336C52.4442 31.6334 52.5343 31.687 52.6037 31.687C52.666 31.687 52.7006 31.6714 52.7129 31.6429C52.7258 31.6151 52.7536 31.6021 52.8005 31.6021C52.8601 31.6021 52.9817 31.8682 53.1601 32.4062C53.3352 32.9281 53.4228 33.2566 53.4228 33.397C53.4228 33.4819 53.4382 33.5254 53.4695 33.5254C53.5075 33.5254 53.551 33.4785 53.6039 33.3848C53.6792 33.2445 53.745 33.0096 53.8074 32.675C53.9981 31.6212 54.1698 31.0959 54.3205 31.0959C54.3925 31.0959 54.4644 31.1393 54.5328 31.2243C54.6015 31.3118 54.6456 31.3552 54.6673 31.3552C54.7175 31.3552 54.7581 31.2988 54.7955 31.1834C54.8233 31.0987 54.8396 31.03 54.8396 30.9772C54.8396 30.9079 54.799 30.8177 54.7175 30.7078C54.6239 30.5829 54.5295 30.5205 54.4359 30.5205C54.2512 30.5205 54.0824 30.705 53.9297 31.0742C53.7667 31.7338 53.6575 32.2652 53.5977 32.6689L53.5927 32.683C53.5888 32.6941 53.5853 32.7039 53.5824 32.7124C53.5758 32.7311 53.5716 32.7432 53.5699 32.7469C53.5631 32.7593 53.557 32.7593 53.551 32.7469C53.551 32.7464 53.5509 32.7457 53.5508 32.7449L53.5505 32.7422C53.55 32.7382 53.549 32.7324 53.5477 32.7249C53.5453 32.7114 53.542 32.6921 53.5388 32.6689C53.4599 32.1993 53.3229 31.7772 53.1288 31.3992Z"
            fill="#32B8C4" />
        <path
            d="M53.8029 37.7603C53.6339 37.9258 53.4555 38.0073 53.2647 38.0073C52.8521 38.0073 52.6459 37.7792 52.6459 37.3253C52.6459 36.916 52.8367 36.4315 53.2241 35.8683C53.562 35.3681 53.8809 35.0242 54.1809 34.843C54.2407 34.8082 54.2779 34.8117 54.2935 34.8524C54.3126 34.8993 54.297 34.9522 54.2407 35.0146C54.0119 35.2243 53.7805 35.5087 53.5491 35.8683C53.2934 36.2564 53.165 36.5408 53.1617 36.7254C53.2778 36.6283 53.4148 36.5814 53.5715 36.5814C53.9217 36.5814 54.0995 36.7376 54.0995 37.0505C54.0995 37.3347 53.9997 37.573 53.8029 37.7603Z"
            fill="#32B8C4" />
        <path
            d="M29.9529 48.3047C30.1904 47.9356 30.3092 47.6071 30.3092 47.3194C30.3092 46.9285 30.1531 46.7345 29.8437 46.7345C29.4684 46.7345 29.2335 46.9726 29.1304 47.4476C29.1149 47.5447 29.1026 47.6038 29.0958 47.6262C29.1149 47.6323 29.1271 47.6383 29.1399 47.6512C29.1555 47.6444 29.199 47.6199 29.2648 47.576C29.3558 47.5134 29.4589 47.4823 29.5716 47.4823C29.7745 47.4823 29.8775 47.5914 29.8775 47.8107C29.8775 48.0448 29.5587 48.5049 28.9276 49.1958C28.7959 49.3361 28.7334 49.4211 28.7334 49.4428C28.7334 49.4489 28.7334 49.4522 28.7395 49.4522C28.7681 49.4522 28.8583 49.3959 29.0117 49.2894C29.3965 49.0172 29.7094 48.6888 29.9529 48.3047Z"
            fill="#32B8C4" />
        <path
            d="M38.9263 50.04C38.9386 50.014 38.9486 49.9969 38.9609 49.9903C38.9675 49.9817 38.9728 49.9833 38.9761 49.9955C38.9812 50.0055 38.9812 50.0244 38.9761 50.05C38.9504 50.2622 38.8907 50.4518 38.7965 50.6176C38.7007 50.7853 38.5984 50.8688 38.487 50.8688C38.3658 50.8725 38.2719 50.8091 38.2085 50.6792C38.1454 50.5494 38.118 50.375 38.1264 50.1561C38.1369 49.886 38.2411 49.4876 38.4378 48.9645C38.6084 48.5048 38.7556 48.1798 38.8821 47.9865C38.9386 47.9012 38.9742 47.8567 38.9931 47.8534C38.9965 47.867 38.9812 47.9183 38.9438 48.0021C38.6647 48.6228 38.4856 49.1236 38.4032 49.5047C38.3691 49.6567 38.3539 49.7955 38.3539 49.9169C38.3539 50.0878 38.3847 50.2159 38.4477 50.3015C38.4956 50.3717 38.5454 50.4006 38.5984 50.3902C38.706 50.368 38.8154 50.2519 38.9263 50.04Z"
            fill="#32B8C4" />
        <path clip-rule="evenodd"
            d="M42.6257 7.2723L36 0L29.3742 7.2723L20 4.28719L17.8981 13.8981L8.28719 16L11.2723 25.3742L4 32L11.2723 38.6258L8.28719 48L17.8981 50.1019L20 59.7128L29.3742 56.7277L36 64L42.6257 56.7277L52 59.7128L54.1019 50.1019L63.7128 48L60.7277 38.6258L68 32L60.7277 25.3742L63.7128 16L54.1019 13.8981L52 4.28719L42.6257 7.2723ZM22.8148 9.16252L30.5398 11.6225L36 5.62955L41.4601 11.6225L49.1852 9.16252L50.9174 17.0826L58.8374 18.8148L56.3775 26.5399L62.3704 32L56.3775 37.4601L58.8374 45.1852L50.9174 46.9174L49.1852 54.8375L41.4601 52.3775L36 58.3705L30.5398 52.3775L22.8148 54.8375L21.0826 46.9174L13.1625 45.1852L15.6225 37.4601L9.62954 32L15.6225 26.5399L13.1625 18.8148L21.0826 17.0826L22.8148 9.16252Z"
            fill="#32B8C4" fill-rule="evenodd" />
    </g>
    <defs>
        <filter color-interpolation-filters="sRGB" filterUnits="userSpaceOnUse" height="72"
            id="filter0_d_964_35" width="72" x="0" y="0">
            <feFlood flood-opacity="0" result="BackgroundImageFix" />
            <feColorMatrix in="SourceAlpha" result="hardAlpha" type="matrix"
                values="0 0 0 0 0 0 0 0 0 0 0 0 0 0 0 0 0 0 127 0" />
            <feOffset dy="4" />
            <feGaussianBlur stdDeviation="2" />
            <feComposite in2="hardAlpha" operator="out" />
            <feColorMatrix type="matrix" values="0 0 0 0 0 0 0 0 0 0 0 0 0 0 0 0 0 0 0.25 0" />
            <feBlend in2="BackgroundImageFix" mode="normal" result="effect1_dropShadow_964_35" />
            <feBlend in="SourceGraphic" in2="effect1_dropShadow_964_35" mode="normal"
                result="shape" />
        </filter>
    </defs>
</svg>
