<svg fill="none" height="84" viewBox="0 0 84 84" width="84" xmlns="http://www.w3.org/2000/svg">
    <path
        d="M39.1567 18.0605C37.6167 18.6401 36.0951 19.2127 34.591 19.7777C34.5183 19.9278 34.4663 20.0663 34.4363 20.1951C37.2432 19.0835 39.8561 18.0754 42.2736 17.1698C42.3067 17.1393 42.3515 17.0596 42.4054 16.9281C42.4238 16.8859 42.4263 16.8604 42.4145 16.8507C42.4054 16.8441 42.3769 16.8507 42.3275 16.8676C41.2757 17.2631 40.2325 17.6556 39.1977 18.0451L39.1567 18.0605Z"
        fill="white" />
    <path
        d="M38.785 17.5512C38.8295 17.4567 38.9194 17.3675 39.0546 17.2831C39.1941 17.1944 39.3476 17.135 39.5161 17.1051C39.5828 17.094 39.6211 17.0895 39.6305 17.0939C39.6308 17.0941 39.631 17.0942 39.6312 17.0943C39.6314 17.0946 39.632 17.0954 39.6319 17.0958C39.6319 17.096 39.6318 17.0963 39.6317 17.0966C39.6315 17.097 39.6313 17.0974 39.6311 17.0979C39.6277 17.1051 39.5942 17.1231 39.5291 17.1491C39.2148 17.2782 39.039 17.3797 39.0026 17.4568C38.9688 17.5286 38.9857 17.5806 39.0526 17.6121C39.0896 17.6295 39.1283 17.6353 39.1677 17.6285C39.196 17.6244 39.2143 17.623 39.2204 17.6234C39.2226 17.6293 39.2258 17.6335 39.2308 17.6384C39.2255 17.6445 39.2122 17.6623 39.1922 17.6915C39.0847 17.8318 38.9709 17.8735 38.8476 17.8154C38.746 17.7675 38.7246 17.6796 38.785 17.5512Z"
        fill="white" />
    <path clip-rule="evenodd"
        d="M44.3631 29.6208C44.7687 29.6208 45.1627 29.4635 45.5451 29.1492C45.6555 29.0557 45.7118 28.7177 45.7118 28.1314C45.7118 27.7752 45.6205 26.3446 45.4369 23.8374C45.2543 21.3305 45.1652 19.853 45.1652 19.4024C45.1652 18.9944 45.0998 18.6613 44.9729 18.3962C44.9729 18.2533 45.0898 17.9015 45.329 17.3411C45.355 17.273 45.3784 17.2398 45.4044 17.2398C45.4303 17.2398 45.4604 17.2777 45.4935 17.353C45.5617 17.4981 45.7186 17.8971 45.9647 18.5491C46.2183 19.2289 46.3731 19.6442 46.4222 19.7964C46.4479 19.9256 46.4622 20.0147 46.4622 20.0635C46.4622 20.2514 46.284 20.1417 45.9272 19.7333C45.8853 19.6748 45.8641 19.7001 45.8641 19.8108C45.8641 19.8361 45.9441 20.9503 46.1058 23.157C46.2652 25.3618 46.3472 26.6774 46.3472 27.1017C46.3472 28.3309 46.1267 29.2996 45.6861 30.0029C45.3125 30.5936 44.8737 30.8913 44.3703 30.8941V30.9C44.1942 30.9254 44.0185 30.9263 43.8428 30.9V30.8941C43.6759 30.8938 43.5102 30.8748 43.3455 30.837C43.3853 31.38 43.4307 31.9998 43.4821 32.6965C43.712 35.8153 43.8265 37.5346 43.8265 37.8558C43.8265 38.8411 43.6744 39.7109 43.3695 40.4662C43.3059 40.6189 43.2546 40.7287 43.2168 40.797C43.1563 40.8931 43.1206 40.9049 43.1089 40.8341C43.0907 40.7618 43.0973 40.6021 43.1278 40.3557C43.1655 40.0158 43.1842 39.6218 43.1842 39.1714C43.1842 38.7703 43.06 36.8242 42.8112 33.3317C42.7344 32.2522 42.6696 31.3227 42.6168 30.5431C42.4406 30.4409 42.2656 30.3163 42.0917 30.1693C41.6142 29.7216 41.1352 29.276 40.6545 28.8288L40.4947 28.6802C40.4265 28.6217 40.3843 28.5911 40.3678 28.5911C40.3465 28.5911 40.3628 28.6546 40.4194 28.7809C40.6142 29.2312 40.7098 29.5523 40.7098 29.7427C40.7098 30.4604 40.5038 31.002 40.0885 31.3703C39.7908 31.6377 39.1201 31.9939 38.0716 32.4351C37.4284 32.7102 36.9462 32.9257 36.6279 33.0764C35.9925 33.3722 35.5538 33.6139 35.3167 33.8012C34.8805 34.1411 34.2476 34.7912 33.4149 35.7481C32.9203 36.32 32.4205 36.6086 31.9212 36.6086C31.7764 36.6086 31.638 36.5861 31.5058 36.541C31.4712 36.6895 31.437 36.838 31.4037 36.9865C31.3192 37.3785 31.277 37.6671 31.277 37.8522C31.277 38.4971 31.4927 39.0905 31.9244 39.6321C32.5107 40.3547 33.3576 40.7156 34.4691 40.7156C35.4422 40.7156 36.4764 40.486 37.5717 40.0286C38.4537 39.6626 39.2461 39.2055 39.9499 38.6544C40.5851 38.1616 40.9043 37.81 40.9043 37.5988C40.9043 37.5637 40.773 37.2893 40.5103 36.7713C40.1958 36.161 39.9616 35.5656 39.8089 34.9884C39.7504 34.794 39.6802 34.6627 39.6003 34.5945C39.5205 34.5268 39.4807 34.456 39.4807 34.3786C39.4807 34.3201 39.5392 34.0061 39.6568 33.4386C39.6751 33.3353 39.7011 33.286 39.7342 33.286C39.7693 33.286 39.8115 33.3093 39.8609 33.3608C40.0222 33.5394 40.3693 33.8911 40.9043 34.4163C40.9887 34.5033 41.0309 34.5711 41.0309 34.6205C41.0309 34.6814 40.9816 34.7095 40.8782 34.7095C40.7684 34.7095 40.604 34.6769 40.3837 34.6087C40.3999 34.6769 40.5786 35.0495 40.916 35.7274C41.1882 36.2785 41.3241 36.7545 41.3241 37.1535C41.3241 37.9413 41.146 38.5394 40.7892 38.9476C40.5403 39.2372 40.2395 39.5232 39.887 39.805C39.861 39.9786 39.7238 40.4004 39.4716 41.0752C39.1926 41.8279 39.0544 42.4233 39.0544 42.8595C39.0544 43.1947 39.1317 43.462 39.2889 43.6615C39.4534 43.8773 39.6854 43.9877 39.9806 43.9877C40.5038 43.9877 41.0316 43.72 41.566 43.1903C41.745 42.9764 41.9246 42.7632 42.1042 42.55L42.1055 42.5485C42.2644 42.3599 42.4233 42.1713 42.5817 41.9823C43.0226 41.4852 43.6017 41.0421 44.3193 40.6524C44.7393 40.4226 45.4685 40.0896 46.5054 39.6534V39.6571L46.5098 39.6534L47.5442 39.2147C47.3966 38.8091 47.3237 38.3944 47.3237 37.9745C47.3237 37.3388 47.4175 36.8272 47.6052 36.4404C47.795 36.0558 48.0439 35.8638 48.3534 35.8638C48.6277 35.8638 48.8857 36.0914 49.1274 36.5511C49.3428 36.9567 49.4532 37.3272 49.4532 37.658C49.4532 38.497 49.2068 39.1868 48.7146 39.7237C49.0639 40.0852 49.4813 40.2659 49.9692 40.2659L49.9713 40.2675V40.2659C50.3772 40.2659 50.7712 40.1087 51.1537 39.7944C51.2634 39.7003 51.32 39.3629 51.32 38.7766C51.32 38.4198 51.1302 35.6246 50.7525 30.3922C50.375 25.1576 50.1871 22.3196 50.1871 21.879C50.1871 21.4709 50.1149 21.1354 49.9713 20.8727C49.9713 20.7208 50.0908 20.3683 50.3325 19.8177C50.3585 19.7495 50.3841 19.7164 50.4101 19.7164C50.436 19.7164 50.4663 19.7495 50.5017 19.8177C50.5692 19.97 50.729 20.3683 50.9801 21.0138C51.2403 21.6911 51.3947 22.111 51.4467 22.273C51.4726 22.3924 51.4864 22.4816 51.4864 22.54C51.4864 22.7258 51.3056 22.6129 50.9495 22.1954C50.9072 22.137 50.8863 22.1629 50.8863 22.273C50.8863 22.2989 51.0645 24.778 51.4207 29.7096C51.7775 34.6439 51.9557 37.3225 51.9557 37.7472C51.9557 38.9754 51.7353 39.9442 51.2941 40.6481C50.9188 41.2416 50.4782 41.5393 49.9713 41.5393V41.5371L49.9692 41.5393C49.4979 41.5393 49.017 41.3326 48.5245 40.9198C48.2618 40.6993 48.0554 40.4626 47.9075 40.2072L46.5098 40.8L46.5054 40.7978C45.8534 41.0768 45.3653 41.2953 45.0442 41.4476C44.4084 41.7434 43.9704 41.9845 43.733 42.1722C43.2968 42.5124 42.6636 43.1622 41.8312 44.119C41.3365 44.6909 40.8368 44.9796 40.3374 44.9796C39.9175 44.9796 39.5516 44.7897 39.2374 44.4123C38.9068 44.0183 38.7424 43.5374 38.7424 42.9673C38.7424 42.1979 39.0525 41.1978 39.6748 39.9695C39.2815 40.2653 38.8306 40.5564 38.3223 40.8424C36.9476 41.6068 35.6671 41.9889 34.4808 41.9889C32.8858 41.9889 31.7885 41.2082 31.1859 39.6463C31.0682 39.3414 31.0097 38.9521 31.0097 38.4762C31.0097 38.1616 31.0332 37.8452 31.0845 37.5214C31.1483 37.1312 31.2314 36.7793 31.3346 36.4681C31.1502 36.3735 30.979 36.231 30.8208 36.0411C30.4905 35.6471 30.3261 35.1662 30.3261 34.5961C30.3261 33.9645 30.5349 33.1776 30.9541 32.2364L30.7882 32.373C30.3047 32.739 29.8639 32.9217 29.4653 32.9217C29.0455 32.9217 28.6796 32.7318 28.3656 32.3543C28.0347 31.9603 27.8703 31.4794 27.8703 30.9093C27.8703 30.126 28.192 29.1035 28.8368 27.8444C28.9046 27.713 28.9564 27.6475 28.9936 27.6475C29.0125 27.6495 29.0195 27.6683 29.0195 27.6968C29.0195 27.8256 28.8811 28.2643 28.5997 29.017C28.3207 29.7698 28.1824 30.3652 28.1824 30.802C28.1824 31.1323 28.2596 31.3999 28.4169 31.6035C28.5859 31.8193 28.8181 31.9298 29.1086 31.9298C29.5895 31.9298 30.0399 31.7725 30.4644 31.4585C30.9851 31.0081 31.5078 30.5577 32.0284 30.1097C32.9175 29.3559 33.8042 28.7699 34.6869 28.3537C34.573 27.9014 34.4873 27.4459 34.4298 26.9865C34.4135 26.8623 34.4018 26.7869 34.3922 26.7564C34.3668 26.6627 34.3128 26.562 34.2283 26.4515L34.5144 25.7573C34.5591 25.6423 34.6014 25.5864 34.634 25.5864C34.6645 25.5864 34.7139 25.6423 34.7866 25.7573L35.518 26.928C35.6168 27.0847 35.6636 27.1997 35.6636 27.2725C35.6636 27.324 35.6401 27.3499 35.5888 27.3499C35.4991 27.3499 35.3399 27.2751 35.1103 27.127C35.1498 27.3963 35.219 27.7099 35.3183 28.0666L35.4312 28.0154C35.931 27.8419 36.3601 27.7554 36.7168 27.7554C37.0756 27.7554 37.3618 27.9055 37.5703 28.2104C37.7816 28.5126 37.887 28.9137 37.887 29.4084C37.887 29.8211 37.7978 30.1616 37.6197 30.4288C37.4411 30.696 37.2045 30.8299 36.9138 30.8299C36.5102 30.8299 36.1209 30.633 35.7433 30.2435C35.4618 29.9504 35.2531 29.6359 35.1127 29.3005C34.423 29.5753 33.6301 30.0654 32.7415 30.7689C32.2703 31.1539 31.8018 31.5387 31.334 31.9236C31.266 32.129 31.1732 32.3889 31.0555 32.704C30.7765 33.4567 30.6382 34.052 30.6382 34.4882C30.6382 34.8238 30.7155 35.0914 30.8728 35.2903C31.0367 35.5061 31.2693 35.6168 31.5644 35.6168C32.0876 35.6168 32.6154 35.3494 33.1498 34.8191C33.3023 34.6371 33.4553 34.4556 33.6083 34.274L33.6089 34.2732C33.7946 34.0528 33.9802 33.8325 34.1651 33.6114C34.6063 33.1142 35.1857 32.6708 35.9031 32.2815C36.3208 32.0533 37.0441 31.7224 38.0716 31.2897V31.2878C39.1786 30.8194 39.9059 30.4554 40.253 30.1999C40.3537 30.1252 40.3887 30.0242 40.3537 29.895C40.1683 29.2171 39.404 28.314 38.0597 27.1864C36.8213 26.187 35.5825 25.1902 34.3439 24.1934L34.335 24.1863L34.3344 24.1858L34.2046 24.0813C34.1598 24.0435 34.1363 23.9031 34.1363 23.6614C34.1363 23.3474 34.1694 23.0238 34.2373 22.6883C34.3099 22.3152 34.399 22.0785 34.5047 21.9825C35.2295 21.3277 36.777 20.46 39.1457 19.379C41.5451 18.2811 43.1304 17.7326 43.8975 17.7326C44.1248 17.7326 44.2818 17.7773 44.3662 17.8683C44.4532 17.96 44.4954 18.1147 44.4954 18.3352C44.4954 18.8396 44.1927 19.4681 43.5926 20.2189C43.4817 20.3446 43.3702 20.4704 43.2586 20.5964L43.2549 20.6005L43.2544 20.6011C43.1405 20.7296 43.0264 20.8584 42.9122 20.9878C42.5513 21.4078 42.3071 21.7502 42.1808 22.0128C42.0964 22.1911 42.0423 22.2802 42.021 22.2802C42 22.2802 42.0119 22.1604 42.0588 21.9237C42.0845 21.7924 42.1852 21.5651 42.359 21.2433C42.5163 20.9456 42.6333 20.7533 42.713 20.6642C43.3931 19.8924 43.7987 19.3837 43.9347 19.142C43.9491 19.1185 43.9535 19.0932 43.9535 19.0672C43.9535 18.9215 43.7637 18.8512 43.3815 18.8512C42.7765 18.8512 41.3409 19.379 39.0757 20.4347C36.8124 21.4897 35.262 22.3574 34.4274 23.0372C34.3733 23.0848 34.3802 23.1245 34.4531 23.157C35.1939 23.612 35.9237 24.0813 36.6413 24.5641C38.3674 25.7349 39.894 26.8887 41.2261 28.026C41.6295 28.3778 42.0307 28.7321 42.4338 29.0883C42.4643 29.111 42.4948 29.133 42.5252 29.1542C42.4687 28.265 42.4406 27.7358 42.4406 27.5674C42.4406 27.1571 42.3776 26.8193 42.2508 26.5566C42.2508 26.3902 42.3679 26.0384 42.6051 25.501C42.6565 25.3814 42.713 25.384 42.7716 25.5061C42.8397 25.6512 42.9965 26.0501 43.2402 26.7021C43.5008 27.3821 43.651 27.7994 43.6933 27.9567C43.7258 28.0763 43.7446 28.1654 43.7446 28.2239C43.7446 28.4117 43.564 28.2992 43.2031 27.8865C43.1609 27.8274 43.1395 27.8534 43.1395 27.9639C43.1395 27.985 43.1761 28.5057 43.25 29.5254C43.4474 29.589 43.6433 29.6209 43.8375 29.6208V29.6183C44.0179 29.6505 44.193 29.6511 44.3631 29.6208ZM36.9698 29.5565C37.1343 29.5565 37.2187 29.5117 37.2187 29.4227C37.2187 29.2914 37.1012 29.1763 36.867 29.0781C36.6935 29.0073 36.4121 29.0053 36.0226 29.073C36.2287 29.3947 36.5454 29.5565 36.9698 29.5565ZM49.1296 38.204C49.1296 38.0636 49.0195 37.8478 48.8037 37.5545C48.5667 37.24 48.3603 37.0852 48.1868 37.0852C48.0554 37.0852 47.9263 37.1652 47.7997 37.3272C47.6733 37.4864 47.6098 37.639 47.6098 37.7841C47.6098 37.9063 47.678 38.1221 47.8184 38.427C47.9382 38.694 48.0298 38.8748 48.0977 38.9664C48.2759 38.8819 48.4801 38.7625 48.7096 38.6052C48.9888 38.4179 49.1296 38.2841 49.1296 38.204Z"
        fill="white" fill-rule="evenodd" />
    <path
        d="M47.3589 19.1851C47.4855 19.4478 47.5487 19.7851 47.5487 20.1959C47.5487 20.5476 47.6708 22.4704 47.9192 25.9603C48.168 29.4522 48.2923 31.3989 48.2923 31.7999C48.2923 32.2503 48.2734 32.6443 48.2363 32.9842C48.2058 33.2306 48.1986 33.3898 48.2174 33.4627C48.2291 33.5329 48.2643 33.5212 48.3253 33.425C48.3625 33.3573 48.4144 33.2469 48.4775 33.0947C48.7823 32.3394 48.935 31.4691 48.935 30.4843C48.935 30.1632 48.82 28.4439 48.59 25.3246C48.3605 22.2078 48.248 20.6295 48.248 20.5919C48.248 20.4819 48.2689 20.456 48.3111 20.5145C48.6725 20.9273 48.8526 21.0402 48.8526 20.8525C48.8526 20.794 48.8343 20.7048 48.8012 20.5852C48.759 20.428 48.6088 20.0107 48.3487 19.3301C48.1044 18.6782 47.9477 18.2797 47.8795 18.1343C47.8209 18.0125 47.7645 18.0099 47.713 18.1295C47.4764 18.6666 47.3589 19.0182 47.3589 19.1851Z"
        fill="white" />
    <path
        d="M34.2468 32.5568V31.8157C34.3593 31.8554 34.5796 31.8976 34.9034 31.9425C35.227 31.9873 35.4051 32.001 35.4403 31.9847C35.4662 31.9729 35.4805 31.9379 35.4805 31.8793V30.9525C35.4805 30.9103 35.4688 30.8868 35.4475 30.8849C35.0489 30.8425 34.655 30.7816 34.2631 30.7042C34.2162 30.695 34.1903 30.7229 34.1857 30.7907C34.1649 31.0091 34.1598 31.2645 34.1694 31.5577C33.7542 31.5062 33.3744 31.4477 33.032 31.3842C32.9851 31.377 32.9592 31.4055 32.9546 31.4712C32.898 32.0055 32.9026 32.3389 32.9663 32.4677C32.9826 32.5028 33.1842 32.5475 33.5714 32.6062C33.9556 32.6626 34.1694 32.6809 34.2066 32.6626C34.2325 32.6484 34.2468 32.6153 34.2468 32.5568Z"
        fill="white" />
    <path
        d="M37.2178 38.6475C37.3959 38.3707 37.4849 38.1243 37.4849 37.9085C37.4849 37.6154 37.3679 37.4703 37.1358 37.4703C36.8542 37.4703 36.6782 37.6485 36.6008 38.0047C36.5891 38.0775 36.58 38.1222 36.5754 38.1385C36.5891 38.1432 36.5987 38.1477 36.608 38.1574C36.6197 38.1523 36.6527 38.1339 36.7015 38.1008C36.7698 38.0541 36.8472 38.0306 36.9316 38.0306C37.0838 38.0306 37.1617 38.1126 37.1617 38.277C37.1617 38.4526 36.9225 38.7976 36.4486 39.3158C36.3499 39.4211 36.3031 39.4848 36.3031 39.5011C36.3031 39.5056 36.3031 39.5081 36.3077 39.5081C36.329 39.5081 36.3968 39.4659 36.5117 39.386C36.8003 39.1818 37.035 38.9361 37.2178 38.6475Z"
        fill="white" />
    <path
        d="M41.0831 21.536C41.2612 21.2591 41.3502 21.0128 41.3502 20.797C41.3502 20.5038 41.2332 20.3588 41.0011 20.3588C40.7195 20.3588 40.5435 20.5369 40.4661 20.8931C40.4544 20.966 40.4453 21.0107 40.4407 21.027C40.4544 21.0316 40.464 21.0362 40.4733 21.0458C40.485 21.0408 40.518 21.0224 40.5668 20.9893C40.6351 20.9425 40.7125 20.9191 40.7969 20.9191C40.9491 20.9191 41.027 21.001 41.027 21.1655C41.027 21.3411 40.7878 21.6861 40.3139 22.2043C40.2152 22.3095 40.1684 22.3733 40.1684 22.3895C40.1684 22.3941 40.1684 22.3966 40.173 22.3966C40.1943 22.3966 40.2621 22.3544 40.377 22.2745C40.6656 22.0703 40.9003 21.8246 41.0831 21.536Z"
        fill="white" />
    <path
        d="M40.7465 41.3428C40.6966 41.6682 40.7156 41.9294 40.8034 42.1265C40.9227 42.3943 41.0886 42.4791 41.3006 42.3846C41.5578 42.27 41.646 42.0357 41.5717 41.6788C41.5528 41.6075 41.5429 41.563 41.5405 41.5463C41.5261 41.5475 41.5154 41.5473 41.503 41.5423C41.4944 41.5517 41.4717 41.5819 41.4406 41.632C41.3973 41.7025 41.3361 41.7554 41.259 41.7898C41.12 41.8518 41.0155 41.8086 40.9485 41.6584C40.877 41.498 40.9551 41.0855 41.177 40.4193C41.2243 40.2829 41.2411 40.2057 41.2345 40.1908C41.2326 40.1867 41.2316 40.1844 41.2275 40.1863C41.208 40.195 41.1633 40.2611 41.0908 40.3808C40.9103 40.6848 40.796 41.0048 40.7465 41.3428Z"
        fill="white" />
    <path
        d="M43.9929 22.6217C44.171 22.3448 44.26 22.0985 44.26 21.8827C44.26 21.5895 44.143 21.4445 43.9109 21.4445C43.6294 21.4445 43.4533 21.6226 43.376 21.9789C43.3642 22.0517 43.3551 22.0964 43.3505 22.1127C43.3642 22.1174 43.3739 22.1219 43.3831 22.1316C43.3948 22.1265 43.4278 22.1081 43.4767 22.075C43.5449 22.0282 43.6223 22.0048 43.7068 22.0048C43.8589 22.0048 43.9369 22.0867 43.9369 22.2512C43.9369 22.4268 43.6976 22.7718 43.2238 23.29C43.125 23.3952 43.0782 23.459 43.0782 23.4752C43.0782 23.4798 43.0782 23.4823 43.0828 23.4823C43.1042 23.4823 43.1719 23.4401 43.2868 23.3602C43.5754 23.156 43.8101 22.9103 43.9929 22.6217Z"
        fill="white" />
    <path
        d="M28.87 25.8314C28.8301 26.0084 28.8306 26.1528 28.8714 26.2646C28.9269 26.4164 29.0149 26.4693 29.135 26.4254C29.2808 26.3722 29.3383 26.2467 29.311 26.0476C29.3033 26.0077 29.2996 25.9828 29.2989 25.9735C29.2909 25.9737 29.285 25.9731 29.2784 25.9699C29.2733 25.9747 29.2597 25.9905 29.2407 26.0168C29.2142 26.054 29.1785 26.0808 29.1348 26.0967C29.056 26.1255 29.0002 26.0978 28.9691 26.0127C28.9359 25.9217 28.9945 25.6978 29.1419 25.3399C29.1731 25.2667 29.1853 25.2249 29.1822 25.2164C29.1813 25.2141 29.1809 25.2128 29.1785 25.2137C29.1675 25.2177 29.1404 25.2524 29.0959 25.3155C28.9851 25.4757 28.9101 25.6474 28.87 25.8314Z"
        fill="white" />
    <path
        d="M30.6165 27.445C30.7543 27.2314 30.8229 27.0413 30.8229 26.8749C30.8229 26.6487 30.7323 26.5369 30.5533 26.5369C30.3362 26.5369 30.2007 26.6743 30.1406 26.949C30.1315 27.0052 30.1245 27.0398 30.121 27.0524C30.1315 27.0559 30.1391 27.0594 30.1461 27.0668C30.1552 27.0629 30.1807 27.0488 30.2188 27.0232C30.2709 26.9871 30.3306 26.969 30.3958 26.969C30.5136 26.969 30.5733 27.0323 30.5733 27.1591C30.5733 27.2946 30.3887 27.5608 30.0232 27.9605C29.947 28.0417 29.9109 28.0909 29.9109 28.1034C29.9109 28.1069 29.9109 28.1088 29.9144 28.1088C29.9309 28.1088 29.9836 28.0763 30.0719 28.0147C30.2945 27.8572 30.4755 27.6676 30.6165 27.445Z"
        fill="white" />
    <path
        d="M34.5945 40.0978C34.5265 40.1629 34.4573 40.1952 34.382 40.1952C34.2195 40.1952 34.138 40.1052 34.138 39.9267C34.138 39.7655 34.2134 39.5751 34.3656 39.3537C34.4986 39.1556 34.6239 39.0197 34.7422 38.9489C34.7659 38.9357 34.7806 38.9357 34.7865 38.9517C34.7938 38.971 34.788 38.9918 34.7659 39.0168C34.6759 39.0995 34.5842 39.2117 34.4941 39.3537C34.3922 39.5055 34.3419 39.618 34.3419 39.6902C34.3877 39.652 34.4409 39.6341 34.5015 39.6341C34.6402 39.6341 34.7098 39.6947 34.7098 39.8187C34.7098 39.9309 34.6713 40.0241 34.5945 40.0978Z"
        fill="white" />
    <path
        d="M32.9287 21.6073C33.1069 21.3304 33.1964 21.0845 33.1964 20.8688C33.1964 20.5756 33.0789 20.4301 32.8468 20.4301C32.5653 20.4301 32.3893 20.6082 32.3119 20.9649C32.3001 21.0372 32.291 21.0821 32.2865 21.0984C32.3001 21.1029 32.3098 21.108 32.319 21.1171C32.3308 21.1126 32.3637 21.0938 32.4131 21.0612C32.4809 21.0138 32.5583 20.9905 32.6427 20.9905C32.7954 20.9905 32.8728 21.0728 32.8728 21.2367C32.8728 21.4129 32.6336 21.7574 32.1597 22.2755C32.0609 22.3813 32.0142 22.4445 32.0142 22.4608C32.0142 22.4659 32.0142 22.4678 32.0187 22.4678C32.0401 22.4678 32.1078 22.4256 32.2228 22.3463C32.5113 22.1421 32.746 21.8959 32.9287 21.6073Z"
        fill="white" />
    <path
        d="M36.4329 18.6549C36.5689 18.5719 36.6598 18.4836 36.7053 18.3897C36.7672 18.262 36.7467 18.1738 36.6456 18.1248C36.5229 18.0654 36.4087 18.1059 36.2997 18.2449C36.2794 18.274 36.2659 18.2916 36.2605 18.2977C36.2655 18.3026 36.2686 18.3068 36.2707 18.3127C36.2768 18.3132 36.2951 18.312 36.3235 18.3082C36.363 18.3019 36.4017 18.308 36.4384 18.3259C36.5049 18.3581 36.5213 18.4103 36.4867 18.4817C36.4495 18.5584 36.2727 18.658 35.9569 18.7837C35.8916 18.809 35.8579 18.8266 35.8545 18.8337C35.8534 18.836 35.853 18.8368 35.855 18.8378C35.8643 18.8423 35.9027 18.8382 35.9695 18.8279C36.1383 18.7998 36.2924 18.742 36.4329 18.6549Z"
        fill="white" />
    <path
        d="M41.3956 32.8492C41.4783 32.8492 41.5542 32.8137 41.6287 32.7424C41.7131 32.6614 41.7553 32.5592 41.7553 32.4362C41.7553 32.3001 41.679 32.2337 41.5268 32.2337C41.4604 32.2337 41.4019 32.2533 41.3517 32.2951C41.3517 32.216 41.4069 32.0926 41.5187 31.926C41.6175 31.7702 41.718 31.6472 41.8169 31.5565C41.8411 31.529 41.8475 31.5063 41.8394 31.4851C41.833 31.4675 41.8169 31.4676 41.7908 31.482C41.6611 31.5596 41.5236 31.7088 41.3777 31.926C41.2107 32.1689 41.1281 32.3778 41.1281 32.5546C41.1281 32.7505 41.2174 32.8492 41.3956 32.8492Z"
        fill="white" />
    <path
        d="M31.976 34.6673C32.0513 34.6673 32.1206 34.6346 32.1885 34.5699C32.2655 34.4958 32.304 34.4029 32.304 34.2907C32.304 34.1667 32.2344 34.106 32.0956 34.106C32.035 34.106 31.9818 34.1237 31.9359 34.1622C31.9359 34.0897 31.9863 33.9775 32.0882 33.8253C32.1783 33.6836 32.2699 33.5714 32.36 33.4887C32.3822 33.4634 32.3879 33.4429 32.3805 33.4236C32.3748 33.4073 32.36 33.4073 32.3363 33.4208C32.2181 33.4916 32.0927 33.6275 31.9597 33.8253C31.8075 34.0468 31.7321 34.2375 31.7321 34.3984C31.7321 34.5773 31.8135 34.6673 31.976 34.6673Z"
        fill="white" />
    <path
        d="M45.5589 35.2886C45.5669 35.2706 45.5768 35.2576 45.5849 35.2478C45.5943 35.2432 45.5978 35.2446 45.5978 35.2527C45.601 35.2607 45.601 35.2756 45.5978 35.2967C45.5198 35.7273 45.3905 35.9429 45.2122 35.9429C45.0209 35.9429 44.927 35.7843 44.927 35.4682C44.927 35.0779 45.0388 34.6694 45.2638 34.2419C45.3208 34.1364 45.3531 34.0816 45.3662 34.0798C45.3669 34.0798 45.3677 34.0802 45.3683 34.0809C45.3685 34.0811 45.369 34.0818 45.3691 34.0821L45.3693 34.083C45.3693 34.1041 45.3531 34.1642 45.3208 34.2644C45.1749 34.7102 45.1021 35.021 45.1021 35.1993C45.1021 35.4422 45.1668 35.5656 45.2998 35.5656C45.3756 35.5656 45.4615 35.4732 45.5589 35.2886Z"
        fill="white" />
    <path
        d="M29.6392 35.4154C29.6509 35.3849 29.6653 35.366 29.6769 35.3569C29.6861 35.3498 29.6932 35.3524 29.6958 35.3641C29.7003 35.3758 29.7003 35.3967 29.6958 35.4271C29.6672 35.669 29.597 35.8847 29.4891 36.077C29.3812 36.2669 29.2641 36.3632 29.1375 36.3632C28.9965 36.3651 28.8911 36.2949 28.8184 36.1448C28.7482 35.9972 28.7151 35.7977 28.7247 35.5468C28.7364 35.2419 28.83 34.8505 29.0035 34.3721C29.1517 33.964 29.283 33.6779 29.3975 33.5136C29.4702 33.4148 29.5126 33.3633 29.5243 33.3614C29.5289 33.3777 29.5105 33.4336 29.4683 33.5323C29.2123 34.0999 29.0529 34.6251 28.9898 35.1035C28.9802 35.1574 28.9781 35.2139 28.9781 35.2678C28.9781 35.6501 29.0718 35.8327 29.2641 35.8165C29.3792 35.8023 29.5033 35.669 29.6392 35.4154Z"
        fill="white" />
    <path
        d="M30.1123 23.442C30.2793 23.442 30.4478 23.6037 30.6166 23.9268C30.7694 24.2233 30.8746 24.5538 30.936 24.9188L30.937 24.9256L30.9385 24.9357L30.9403 24.9471C30.9431 24.9648 30.9448 24.9755 30.9448 24.9802C30.952 24.989 30.9554 24.989 30.9588 24.9802C30.9622 24.9734 30.971 24.954 30.9836 24.9188C31.0274 24.6044 31.1135 24.1901 31.2401 23.6737C31.3609 23.3856 31.4928 23.2416 31.6349 23.2416C31.7089 23.2416 31.7809 23.2912 31.8544 23.3894C31.9177 23.4752 31.9493 23.5438 31.9493 23.5983C31.9493 23.6407 31.9386 23.6932 31.9162 23.7599C31.888 23.8494 31.8544 23.8933 31.8159 23.8933C31.7999 23.8933 31.7649 23.8602 31.7123 23.7915C31.6578 23.7229 31.6018 23.6897 31.5454 23.6897C31.428 23.6897 31.2942 24.1006 31.1452 24.9223C31.0975 25.1841 31.045 25.3686 30.987 25.4756C30.9466 25.5492 30.9116 25.5862 30.8834 25.5862C30.857 25.5862 30.8449 25.553 30.8449 25.4864C30.8449 25.3773 30.7763 25.119 30.6409 24.7135C30.5007 24.2938 30.4074 24.0846 30.3601 24.0846C30.325 24.0846 30.3022 24.0953 30.2934 24.1181C30.2827 24.1391 30.2545 24.1513 30.2073 24.1513C30.1527 24.1513 30.0827 24.1109 29.9946 24.032C29.907 23.9532 29.8646 23.888 29.8646 23.8407C29.8646 23.8198 29.9001 23.7477 29.9736 23.6247C30.0476 23.5015 30.0929 23.442 30.1123 23.442Z"
        fill="white" />
    <path
        d="M52.4224 24.3886C52.4224 23.9733 52.3567 23.638 52.23 23.3844C52.23 23.2135 52.3471 22.8592 52.5863 22.3223C52.6357 22.2027 52.6921 22.2052 52.7506 22.3269C52.8189 22.4724 52.9756 22.8709 53.222 23.5229C53.48 24.2033 53.6327 24.6227 53.6744 24.7845C53.7075 24.8976 53.7263 24.9866 53.7263 25.0451C53.7263 25.2396 53.543 25.1271 53.1823 24.7073C53.14 24.6558 53.1187 24.6838 53.1187 24.7896C53.1187 24.8293 53.2525 26.6799 53.5176 30.3408C53.7822 34.0036 53.9162 35.9972 53.9162 36.3184C53.9162 37.3154 53.764 38.1852 53.4637 38.9267C53.4001 39.0815 53.3486 39.1914 53.3089 39.2596C53.2499 39.3557 53.2148 39.3675 53.201 39.2972C53.1842 39.2244 53.1914 39.0647 53.222 38.8188C53.2596 38.4784 53.2805 38.0824 53.2805 37.6294C53.2805 37.231 53.1374 35.0124 52.8514 30.9784C52.5653 26.9425 52.4224 24.7449 52.4224 24.3886Z"
        fill="white" />
    <path
        d="M36.7982 35.6059C36.7793 35.5941 36.7793 35.5682 36.7982 35.5305L37.2038 34.6959C37.2297 34.6439 37.2577 34.6206 37.2862 34.6206C37.3285 34.6206 37.5111 34.731 37.8349 34.9514C38.1561 35.1717 38.3179 35.301 38.3179 35.3381C38.3179 35.4838 38.1748 35.784 37.8913 36.2436C37.8563 36.3021 37.8206 36.3163 37.7834 36.2883C37.4644 36.044 37.1361 35.8191 36.7982 35.6059Z"
        fill="white" />
    <path
        d="M48.0719 34.6912L48.3956 34.0226C48.4216 33.9711 48.4496 33.9476 48.4801 33.9476C48.5223 33.9476 48.703 34.0576 49.0261 34.2786C49.3478 34.4989 49.5096 34.6276 49.5096 34.6653C49.5096 34.8108 49.3667 35.1106 49.0827 35.5682C49.0496 35.6247 49.0124 35.6384 48.9748 35.6125C48.6958 35.4064 48.3793 35.188 48.027 34.9584C47.9074 35.2257 47.793 35.4531 47.678 35.641C47.6449 35.6995 47.6078 35.7137 47.5701 35.6852C47.2509 35.4414 46.9227 35.2165 46.5847 35.0027C46.5663 34.991 46.5663 34.9656 46.5847 34.9279L46.9908 34.0928C47.0164 34.0413 47.0448 34.018 47.0728 34.0154C47.1125 34.018 47.2672 34.107 47.537 34.2902C47.8093 34.473 47.9874 34.6068 48.0719 34.6912Z"
        fill="white" />
    <path clip-rule="evenodd"
        d="M46.8724 31.7123C46.5047 31.5213 46.3197 31.3211 46.3197 31.1114C46.3197 30.8598 46.4382 30.6285 46.6688 30.4191C46.9027 30.2096 47.097 30.1312 47.2518 30.1885C47.3822 30.2339 47.4461 30.3737 47.4461 30.6075C47.4461 30.8169 47.4033 31.0536 47.3158 31.3152C47.5008 31.4211 47.6195 31.5122 47.6649 31.5852C47.6649 31.6854 47.5826 31.852 47.416 32.0891C47.3704 32.0161 47.2578 31.9252 47.0786 31.8157C46.8724 32.1011 46.6115 32.3625 46.2959 32.5958C45.9375 32.8601 45.6061 33.0603 45.3057 33.194C45.245 33.2244 44.8959 33.3581 44.2647 33.592C44.1646 33.6281 44.1006 33.6467 44.0671 33.6467C44.0519 33.6467 44.046 33.6408 44.046 33.6342C44.046 33.6098 44.1006 33.5617 44.2101 33.4919C44.6771 33.2151 45.145 32.9358 45.6154 32.6538C46.1773 32.3138 46.5963 32.0009 46.8724 31.7123ZM47.097 31.1998C47.1333 31.0871 47.1399 30.9718 47.1213 30.8566C47.097 30.7287 47.039 30.6682 46.9481 30.6682C46.9059 30.6682 46.8454 30.6898 46.7722 30.7287C46.6965 30.7716 46.657 30.811 46.657 30.8507C46.657 30.9416 46.8057 31.0601 47.097 31.1998Z"
        fill="white" fill-rule="evenodd" />
    <path clip-rule="evenodd"
        d="M46.3669 37.272C46.3669 37.555 46.2704 37.8256 46.077 38.081C45.8712 38.36 45.6278 38.4993 45.3529 38.4993C45.0665 38.4993 44.9228 38.36 44.9228 38.081C44.9228 37.8802 45.0355 37.5853 45.2598 37.2023C45.4882 36.815 45.6822 36.626 45.8443 36.626C45.9839 36.626 46.1082 36.6873 46.2123 36.8075C46.3132 36.9318 46.3669 37.0864 46.3669 37.272ZM46.1192 37.5896C46.1192 37.3299 45.9377 37.1989 45.5815 37.1989C45.531 37.1989 45.4463 37.2795 45.3261 37.4425C45.2061 37.6088 45.148 37.7215 45.148 37.7869C45.1899 37.8802 45.322 37.9264 45.5504 37.9264C45.9302 37.9264 46.1192 37.8137 46.1192 37.5896Z"
        fill="white" fill-rule="evenodd" />
    <path
        d="M44.4834 23.8851C44.6545 23.8851 44.7415 23.9676 44.7415 24.136C44.7415 24.2255 44.7181 24.3192 44.6708 24.4154C44.6402 24.481 44.5629 24.5864 44.4386 24.7365C44.2605 24.9407 44.1435 25.0836 44.0824 25.1682C43.9817 25.302 43.9225 25.3698 43.9062 25.3698C43.9043 25.3698 43.9017 25.3651 43.9017 25.3605C43.9017 25.3442 43.918 25.2994 43.9486 25.2221C44.0167 25.0531 44.1246 24.8842 44.2794 24.7085C44.3659 24.6124 44.4575 24.5136 44.5491 24.4154C44.514 24.3309 44.46 24.2887 44.3827 24.2887C44.3288 24.2887 44.2605 24.3075 44.1831 24.3472C43.407 24.7411 42.6588 24.9407 41.9387 24.9407C41.5422 24.9407 41.1834 24.8542 40.8623 24.6826C40.9092 24.8327 40.8929 25.0109 40.8129 25.2221C40.7824 25.3041 40.7615 25.3488 40.7472 25.3509C40.7402 25.3509 40.7356 25.2994 40.7356 25.1987C40.7356 25.0109 40.705 24.849 40.6465 24.7131C40.6393 24.6968 40.5411 24.5488 40.3558 24.2744C40.3864 24.0846 40.4332 23.991 40.4964 23.991C40.5034 23.991 40.5503 24.0236 40.6393 24.0917C40.7453 24.1782 40.8531 24.249 40.9631 24.3075C41.2893 24.4786 41.648 24.5656 42.0349 24.5656C42.4431 24.5656 42.8369 24.507 43.2167 24.3894C43.4395 24.3192 43.7048 24.2087 44.0116 24.0586C44.2535 23.9416 44.4107 23.8851 44.4834 23.8851Z"
        fill="white" />
    <path
        d="M35.6678 36.7734C35.6678 36.8533 35.5671 37.0314 35.3675 37.3129C35.14 37.6274 34.9247 37.8595 34.7207 38.005C34.5894 38.0961 34.1552 38.2416 33.4167 38.4367C33.2854 38.4693 33.2192 38.4809 33.2192 38.4738C33.2289 38.46 33.2732 38.4224 33.3556 38.3588C33.4518 38.284 33.7145 38.1364 34.1435 37.9089C34.5563 37.6905 34.798 37.5501 34.8682 37.4889C34.8799 37.4747 34.8871 37.463 34.8871 37.4513C34.8871 37.3531 34.5186 37.3058 33.7872 37.3058C33.7847 37.3058 33.6442 37.3108 33.3648 37.3226C33.2315 37.3296 33.1658 37.32 33.1658 37.2966C33.1658 37.2777 33.1821 37.2401 33.2147 37.1816L33.4752 36.7408C33.5526 36.6116 33.691 36.5321 33.8926 36.497C33.9654 36.4853 34.1344 36.4802 34.4015 36.4802C35.2459 36.4802 35.6678 36.5764 35.6678 36.7734Z"
        fill="white" />
    <path
        d="M39.641 22.3167C39.641 22.251 39.5987 22.192 39.5117 22.1431C39.4252 22.0938 39.2914 22.0703 39.1107 22.0703C38.6933 22.0703 38.2923 22.192 37.9074 22.4409C37.7456 22.5442 37.6637 22.6403 37.6637 22.7294C37.6637 22.8394 37.7859 22.9636 38.0251 23.1046C38.3976 23.2755 38.6907 23.4002 38.9045 23.4751C39.214 23.6557 39.3499 23.8175 39.3127 23.9627C39.2094 23.9371 38.9422 23.8501 38.5105 23.7C38.0251 23.5336 37.7248 23.414 37.6052 23.3438C37.3237 23.1819 37.1456 23.0298 37.0682 22.8913C37.0565 22.9356 37.0514 22.985 37.0514 23.0363C37.0514 23.3178 37.1833 23.5336 37.4433 23.6863C37.7599 23.869 38.3039 24.0542 39.0827 24.242C39.132 24.2537 39.2212 24.2043 39.3499 24.0944C39.4928 23.9723 39.5702 23.8501 39.5825 23.7285C39.6033 23.5264 39.4791 23.3483 39.2114 23.1911C39.1625 23.1657 39.0312 23.1116 38.813 23.0343C38.5971 22.9569 38.419 22.8771 38.2831 22.7971C38.1025 22.6943 38.0134 22.619 38.0108 22.5696C38.0134 22.5416 38.0388 22.5182 38.0953 22.4969C38.2617 22.4312 38.4821 22.3915 38.7543 22.3773C39.0098 22.361 39.1671 22.3706 39.2257 22.4032C39.3101 22.4994 39.3524 22.5676 39.3499 22.6098C39.3804 22.6261 39.4557 22.5722 39.5774 22.45C39.6196 22.4078 39.641 22.3635 39.641 22.3167Z"
        fill="white" />
    <path
        d="M40.1332 32.4585C39.6058 32.6549 39.0839 32.8491 38.5676 33.0412L38.5597 33.0441C37.4944 33.4404 36.4528 33.8279 35.4357 34.2078C35.3629 34.3604 35.3116 34.4989 35.2809 34.6257C35.4571 34.5197 36.3035 34.1868 37.8206 33.6215C39.3078 33.0657 40.0605 32.7797 40.0768 32.7608C40.1119 32.7349 40.1567 32.6529 40.2106 32.5196C40.2295 32.4773 40.2315 32.4514 40.2199 32.4417C40.2106 32.4351 40.1826 32.4417 40.1332 32.4585Z"
        fill="white" />
    <path
        d="M33.6454 25.4626C33.8685 25.3116 33.9911 25.209 34.013 25.1506C34.067 25.0065 33.7849 24.8205 33.1675 24.5889C32.9717 24.5154 32.8472 24.473 32.7907 24.4616C32.6334 24.4318 32.5106 24.4524 32.4187 24.5253L32.1073 24.7762C32.0674 24.81 32.0448 24.8329 32.0396 24.8467C32.0332 24.8638 32.0786 24.8889 32.1784 24.9204C32.3855 24.9884 32.49 25.0233 32.4915 25.0239C33.0267 25.2246 33.2831 25.3603 33.2562 25.4321C33.253 25.4407 33.2445 25.4473 33.232 25.4545C33.1635 25.4797 32.9487 25.5163 32.587 25.5627C32.2108 25.6114 31.9779 25.6471 31.8875 25.6756C31.8097 25.6995 31.767 25.7148 31.7562 25.7223C31.7542 25.7274 31.8055 25.7369 31.9104 25.7491C32.5043 25.8093 32.8612 25.8218 32.9822 25.7912C33.1714 25.7408 33.3928 25.6303 33.6454 25.4626Z"
        fill="white" />
    <path
        d="M33.4459 28.0456C33.4411 27.7747 33.4001 27.5957 33.326 27.505C33.1704 27.3146 32.8808 27.358 32.4542 27.6326C32.3834 27.6829 32.3543 27.7141 32.3659 27.7283C32.3733 27.7373 32.4415 27.7395 32.5695 27.7358C32.6979 27.7317 32.7751 27.7459 32.8035 27.7807C32.8607 27.8507 32.8823 27.9522 32.8688 28.0878C32.6635 27.9497 32.5076 27.8678 32.3965 27.8461C32.1708 27.8019 31.9331 27.8802 31.6893 28.0793C31.6148 28.1402 31.3735 28.4229 30.9625 28.9285C30.5512 29.4348 30.1728 29.8332 29.8221 30.1196C29.6105 30.2925 29.512 30.3889 29.5252 30.405C29.5371 30.4103 29.5788 30.3956 29.6554 30.3607C29.8729 30.2487 30.0711 30.1212 30.25 29.975C30.8581 29.4783 31.388 28.8714 31.8415 28.1567C31.9831 28.1645 32.1596 28.2336 32.3699 28.3676L32.388 28.3807L32.3887 28.3812C32.543 28.493 32.6976 28.605 32.8525 28.7125C32.8747 28.7255 32.9544 28.7141 33.093 28.6749C33.2306 28.6397 33.3104 28.6089 33.3339 28.5863C33.4139 28.494 33.4533 28.315 33.4459 28.0456Z"
        fill="white" />
    <path
        d="M54.954 27.3716C55.1673 27.0408 55.2752 26.7455 55.2752 26.485C55.2752 26.1333 55.1347 25.9598 54.8554 25.9598C54.5199 25.9598 54.3067 26.173 54.213 26.6C54.1988 26.6865 54.1896 26.7405 54.1825 26.7618C54.1988 26.7664 54.2104 26.7736 54.2221 26.7827C54.2365 26.7781 54.2741 26.7547 54.3347 26.7151C54.4171 26.6585 54.5083 26.6305 54.6095 26.6305C54.7948 26.6305 54.8859 26.7287 54.8859 26.9282C54.8859 27.1369 54.5999 27.5523 54.0298 28.1737C53.9153 28.3004 53.8563 28.3752 53.8563 28.394C53.8563 28.3987 53.8588 28.4032 53.8633 28.4032C53.8894 28.4032 53.9693 28.3544 54.1071 28.2581C54.4522 28.0143 54.7358 27.7187 54.954 27.3716Z"
        fill="white" />
    <path
        d="M46.3816 42.3125C46.1937 42.0309 45.9804 41.8905 45.7438 41.8905C45.7178 41.8905 45.6567 41.9699 45.5585 42.1342C45.4597 42.2981 45.413 42.3944 45.413 42.4228C45.413 42.486 45.4695 42.5725 45.5865 42.6783C45.7035 42.7837 45.7977 42.8377 45.8705 42.8377C45.9336 42.8377 45.9713 42.8214 45.9851 42.7934C45.9967 42.7629 46.0273 42.7486 46.0741 42.7486C46.1423 42.7486 46.2548 42.9501 46.4166 43.3562C46.5784 43.762 46.6584 44.0337 46.6584 44.1747C46.6584 44.2637 46.6747 44.308 46.7098 44.308C46.7474 44.308 46.7943 44.2591 46.8483 44.1604C46.9255 44.0175 46.9957 43.7711 47.0595 43.4219C47.2024 42.6219 47.3596 42.2209 47.5281 42.2209C47.6055 42.2209 47.6808 42.2656 47.751 42.3572C47.8239 42.4484 47.8706 42.4951 47.892 42.4951C47.9435 42.4951 47.9883 42.4346 48.0254 42.317C48.0559 42.2279 48.0701 42.1552 48.0701 42.0992C48.0701 42.0264 48.0279 41.9348 47.9435 41.8197C47.8452 41.6885 47.7491 41.6228 47.6503 41.6228C47.4605 41.6228 47.2843 41.8151 47.1225 42.202C46.9749 42.7394 46.8812 43.145 46.8436 43.4168C46.8364 43.4348 46.8307 43.45 46.826 43.4623C46.8184 43.4824 46.8137 43.4949 46.8106 43.4993C46.8059 43.513 46.8013 43.513 46.7922 43.4993C46.7922 43.4947 46.7901 43.4814 46.7867 43.46L46.784 43.443L46.7818 43.4289L46.78 43.4168C46.7026 42.9618 46.5714 42.5939 46.3816 42.3125Z"
        fill="white" />
    <path
        d="M54.8466 30.5494C54.6848 30.2375 54.523 30.0827 54.3612 30.0827C54.3423 30.0827 54.298 30.1413 54.2272 30.2583C54.1596 30.3758 54.1244 30.4461 54.1244 30.4676C54.1244 30.5117 54.1666 30.5728 54.2486 30.6502C54.3332 30.725 54.4008 30.7653 54.4528 30.7653C54.4995 30.7653 54.5255 30.7536 54.5347 30.7322C54.5444 30.7113 54.5652 30.7016 54.6004 30.7016C54.6451 30.7016 54.7363 30.9012 54.8701 31.3047C55.0014 31.6961 55.0671 31.9425 55.0671 32.0477C55.0671 32.1115 55.0787 32.144 55.1021 32.144C55.1307 32.144 55.1632 32.1088 55.203 32.0386C55.2594 31.9333 55.3088 31.7572 55.3556 31.5062C55.4986 30.7159 55.6273 30.3219 55.7404 30.3219C55.7944 30.3219 55.8483 30.3545 55.8997 30.4182C55.9511 30.4839 55.9842 30.5164 56.0005 30.5164C56.0381 30.5164 56.0686 30.4741 56.0966 30.3876C56.1175 30.324 56.1297 30.2725 56.1297 30.2329C56.1297 30.1809 56.0993 30.1133 56.0381 30.0308C55.9679 29.9372 55.8972 29.8904 55.8269 29.8904C55.6884 29.8904 55.5618 30.0288 55.4473 30.3056C55.3251 30.8003 55.2431 31.1989 55.1983 31.5017L55.1946 31.5122C55.1916 31.5205 55.189 31.5279 55.1868 31.5343C55.1819 31.5484 55.1787 31.5574 55.1774 31.5602C55.1724 31.5694 55.1678 31.5694 55.1632 31.5602C55.1632 31.5598 55.1632 31.5593 55.1631 31.5587L55.1629 31.5566C55.1625 31.5537 55.1617 31.5493 55.1608 31.5437C55.159 31.5335 55.1566 31.5191 55.1541 31.5017C55.095 31.1495 54.9922 30.8329 54.8466 30.5494Z"
        fill="white" />
    <path
        d="M55.3522 35.3202C55.2254 35.4444 55.0916 35.5055 54.9486 35.5055C54.6391 35.5055 54.4845 35.3344 54.4845 34.994C54.4845 34.687 54.6275 34.3236 54.9181 33.9012C55.1715 33.5261 55.4107 33.2681 55.6357 33.1322C55.6805 33.1062 55.7084 33.1088 55.7202 33.1393C55.7345 33.1744 55.7228 33.2142 55.6805 33.261C55.509 33.4182 55.3354 33.6315 55.1619 33.9012C54.9701 34.1923 54.8738 34.4056 54.8713 34.5441C54.9583 34.4712 55.0611 34.4361 55.1787 34.4361C55.4413 34.4361 55.5746 34.5532 55.5746 34.7878C55.5746 35.001 55.4998 35.1798 55.3522 35.3202Z"
        fill="white" />
    <path
        d="M37.4647 43.2285C37.6428 42.9517 37.7319 42.7053 37.7319 42.4895C37.7319 42.1964 37.6148 42.0508 37.3828 42.0508C37.1013 42.0508 36.9252 42.2295 36.8478 42.5857C36.8362 42.6585 36.8269 42.7028 36.8218 42.7196C36.8362 42.7242 36.8453 42.7288 36.8549 42.7384C36.8667 42.7333 36.8992 42.7149 36.9486 42.682C37.0169 42.6351 37.0942 42.6118 37.1787 42.6118C37.3309 42.6118 37.4082 42.6936 37.4082 42.858C37.4082 43.0336 37.1691 43.3786 36.6957 43.8968C36.597 44.0021 36.5501 44.0658 36.5501 44.0821C36.5501 44.0866 36.5501 44.0891 36.5546 44.0891C36.5761 44.0891 36.6437 44.0469 36.7588 43.967C37.0474 43.7629 37.282 43.5166 37.4647 43.2285Z"
        fill="white" />
    <path
        d="M44.1947 44.53C44.2039 44.5105 44.2115 44.4977 44.2207 44.4927C44.2257 44.4863 44.2296 44.4874 44.2321 44.4966C44.2359 44.5041 44.2359 44.5183 44.2321 44.5375C44.2128 44.6967 44.168 44.8388 44.0974 44.9632C44.0256 45.089 43.9488 45.1516 43.8653 45.1516C43.7743 45.1544 43.704 45.1068 43.6564 45.0094C43.6091 44.9121 43.5885 44.7813 43.5948 44.6171C43.6027 44.4145 43.6808 44.1157 43.8283 43.7233C43.9563 43.3786 44.0667 43.1348 44.1616 42.9899C44.2039 42.9259 44.2306 42.8925 44.2448 42.89C44.2474 42.9003 44.2359 42.9387 44.2079 43.0016C43.9986 43.4671 43.8642 43.8427 43.8024 44.1285C43.7768 44.2426 43.7654 44.3466 43.7654 44.4377C43.7654 44.5659 43.7885 44.6619 43.8358 44.7261C43.8717 44.7788 43.909 44.8004 43.9488 44.7927C44.0295 44.776 44.1115 44.6889 44.1947 44.53Z"
        fill="white" />
    <path clip-rule="evenodd"
        d="M46.9693 12.4542L42 7L37.0307 12.4542L30 10.2154L28.4236 17.4236L21.2154 19L23.4542 26.0307L18 31L23.4542 35.9693L21.2154 43L28.4236 44.5764L30 51.7846L37.0307 49.5458L42 55L46.9693 49.5458L54 51.7846L55.5764 44.5764L62.7846 43L60.5458 35.9693L66 31L60.5458 26.0307L62.7846 19L55.5764 17.4236L54 10.2154L46.9693 12.4542ZM32.1111 13.8719L37.9049 15.7169L42 11.2222L46.0951 15.7169L51.8889 13.8719L53.188 19.812L59.1281 21.1111L57.2831 26.9049L61.7778 31L57.2831 35.0951L59.1281 40.8889L53.188 42.188L51.8889 48.1281L46.0951 46.2831L42 50.7778L37.9049 46.2831L32.1111 48.1281L30.812 42.188L24.8719 40.8889L26.7169 35.0951L22.2222 31L26.7169 26.9049L24.8719 21.1111L30.812 19.812L32.1111 13.8719Z"
        fill="white" fill-rule="evenodd" />
    <g filter="url(#filter0_i_965_35)">
        <path
            d="M24.6896 60.61C24.6896 60.4367 24.7529 60.2933 24.8796 60.18C25.0063 60.06 25.1663 60 25.3596 60H28.1396C28.6196 60 29.0429 60.0967 29.4096 60.29C29.7829 60.4767 30.0696 60.7467 30.2696 61.1C30.4763 61.4467 30.5796 61.85 30.5796 62.31C30.5796 62.7767 30.4796 63.1867 30.2796 63.54C30.0796 63.8867 29.7963 64.1567 29.4296 64.35C29.0629 64.5367 28.6329 64.63 28.1396 64.63H26.0296V66.1C26.0296 66.42 25.9129 66.6667 25.6796 66.84C25.4529 67.0067 25.1229 67.09 24.6896 67.09V60.61ZM28.1396 63.47C28.4929 63.47 28.7663 63.3667 28.9596 63.16C29.1529 62.9533 29.2496 62.6667 29.2496 62.3C29.2496 61.94 29.1496 61.66 28.9496 61.46C28.7563 61.26 28.4863 61.16 28.1396 61.16H26.0296V63.47H28.1396ZM31.5451 60.61C31.5451 60.4433 31.6084 60.3 31.7351 60.18C31.8684 60.06 32.0284 60 32.2151 60H36.6751C36.6751 60.4 36.6051 60.6933 36.4651 60.88C36.3317 61.06 36.1117 61.15 35.8051 61.15H32.8851V62.89H35.5451C35.5451 63.29 35.4751 63.5833 35.3351 63.77C35.2017 63.95 34.9817 64.04 34.6751 64.04H32.8851V65.85H36.0151C36.3151 65.85 36.5317 65.9433 36.6651 66.13C36.8051 66.31 36.8751 66.6 36.8751 67H32.2151C32.0284 67 31.8684 66.9433 31.7351 66.83C31.6084 66.71 31.5451 66.5633 31.5451 66.39V60.61ZM37.8439 60.61C37.8439 60.4367 37.9072 60.2933 38.0339 60.18C38.1606 60.06 38.3206 60 38.5139 60H41.1839C41.9039 60 42.4606 60.19 42.8539 60.57C43.2539 60.95 43.4539 61.4833 43.4539 62.17C43.4539 62.5633 43.3739 62.8967 43.2139 63.17C43.0539 63.4367 42.8106 63.65 42.4839 63.81V63.84C43.0706 64.1 43.3639 64.5933 43.3639 65.32V66.1C43.3639 66.42 43.2506 66.6667 43.0239 66.84C42.7972 67.0067 42.4639 67.09 42.0239 67.09V65.38C42.0239 65.0267 41.9539 64.7667 41.8139 64.6C41.6739 64.4333 41.4606 64.35 41.1739 64.35H39.1639V66.1C39.1639 66.4267 39.0506 66.6733 38.8239 66.84C38.6039 67.0067 38.2772 67.09 37.8439 67.09V60.61ZM41.1139 63.21C41.4339 63.21 41.6806 63.12 41.8539 62.94C42.0272 62.7533 42.1139 62.4933 42.1139 62.16C42.1139 61.48 41.7806 61.14 41.1139 61.14H39.1639V63.21H41.1139ZM47.2834 67.09C46.6834 67.09 46.16 67.0167 45.7134 66.87C45.2667 66.7233 44.9234 66.5167 44.6834 66.25C44.45 65.9767 44.3334 65.66 44.3334 65.3C44.3334 64.7533 44.7034 64.48 45.4434 64.48C45.47 64.9867 45.64 65.37 45.9534 65.63C46.2734 65.89 46.72 66.02 47.2934 66.02C47.7667 66.02 48.1334 65.94 48.3934 65.78C48.6534 65.6133 48.7834 65.3833 48.7834 65.09C48.7834 64.8967 48.7334 64.74 48.6334 64.62C48.5334 64.4933 48.3634 64.3833 48.1234 64.29C47.8834 64.19 47.5334 64.09 47.0734 63.99C46.42 63.8367 45.9034 63.6667 45.5234 63.48C45.15 63.2933 44.88 63.07 44.7134 62.81C44.5467 62.5433 44.4634 62.2133 44.4634 61.82C44.4634 61.44 44.5734 61.1067 44.7934 60.82C45.02 60.5333 45.3367 60.31 45.7434 60.15C46.1567 59.99 46.63 59.91 47.1634 59.91C47.6767 59.91 48.1334 59.98 48.5334 60.12C48.94 60.2533 49.2567 60.4433 49.4834 60.69C49.7167 60.9367 49.8334 61.22 49.8334 61.54C49.8334 62.0333 49.4767 62.29 48.7634 62.31C48.7234 61.85 48.5767 61.5133 48.3234 61.3C48.07 61.0867 47.6834 60.98 47.1634 60.98C46.7167 60.98 46.3734 61.0533 46.1334 61.2C45.8934 61.3467 45.7734 61.5533 45.7734 61.82C45.7734 62.0067 45.82 62.1633 45.9134 62.29C46.0067 62.41 46.1634 62.5167 46.3834 62.61C46.6034 62.6967 46.9167 62.7867 47.3234 62.88C48.01 63.0333 48.5534 63.2067 48.9534 63.4C49.3534 63.5867 49.6434 63.8167 49.8234 64.09C50.0034 64.3567 50.0934 64.6867 50.0934 65.08C50.0934 65.4867 49.9767 65.8433 49.7434 66.15C49.5167 66.45 49.19 66.6833 48.7634 66.85C48.3434 67.01 47.85 67.09 47.2834 67.09ZM51.2568 60.91C51.2568 60.5967 51.3735 60.3533 51.6068 60.18C51.8401 60 52.1701 59.91 52.5968 59.91V66.09C52.5968 66.41 52.4801 66.6567 52.2468 66.83C52.0135 67.0033 51.6835 67.09 51.2568 67.09V60.91ZM56.717 67.09C56.117 67.09 55.5936 67.0167 55.147 66.87C54.7003 66.7233 54.357 66.5167 54.117 66.25C53.8836 65.9767 53.767 65.66 53.767 65.3C53.767 64.7533 54.137 64.48 54.877 64.48C54.9036 64.9867 55.0736 65.37 55.387 65.63C55.707 65.89 56.1536 66.02 56.727 66.02C57.2003 66.02 57.567 65.94 57.827 65.78C58.087 65.6133 58.217 65.3833 58.217 65.09C58.217 64.8967 58.167 64.74 58.067 64.62C57.967 64.4933 57.797 64.3833 57.557 64.29C57.317 64.19 56.967 64.09 56.507 63.99C55.8536 63.8367 55.337 63.6667 54.957 63.48C54.5836 63.2933 54.3136 63.07 54.147 62.81C53.9803 62.5433 53.897 62.2133 53.897 61.82C53.897 61.44 54.007 61.1067 54.227 60.82C54.4536 60.5333 54.7703 60.31 55.177 60.15C55.5903 59.99 56.0636 59.91 56.597 59.91C57.1103 59.91 57.567 59.98 57.967 60.12C58.3736 60.2533 58.6903 60.4433 58.917 60.69C59.1503 60.9367 59.267 61.22 59.267 61.54C59.267 62.0333 58.9103 62.29 58.197 62.31C58.157 61.85 58.0103 61.5133 57.757 61.3C57.5036 61.0867 57.117 60.98 56.597 60.98C56.1503 60.98 55.807 61.0533 55.567 61.2C55.327 61.3467 55.207 61.5533 55.207 61.82C55.207 62.0067 55.2536 62.1633 55.347 62.29C55.4403 62.41 55.597 62.5167 55.817 62.61C56.037 62.6967 56.3503 62.7867 56.757 62.88C57.4436 63.0333 57.987 63.2067 58.387 63.4C58.787 63.5867 59.077 63.8167 59.257 64.09C59.437 64.3567 59.527 64.6867 59.527 65.08C59.527 65.4867 59.4103 65.8433 59.177 66.15C58.9503 66.45 58.6236 66.6833 58.197 66.85C57.777 67.01 57.2836 67.09 56.717 67.09Z"
            fill="white" />
    </g>
    <path
        d="M27.7918 72.72C27.7918 72.18 28.1085 71.91 28.7418 71.91V72.54C28.6752 72.6067 28.6018 72.7 28.5218 72.82L28.5718 72.86C28.7852 72.5533 29.0085 72.32 29.2418 72.16C29.4752 71.9933 29.7518 71.91 30.0718 71.91C30.6718 71.91 31.0818 72.1967 31.3018 72.77C31.6752 72.1967 32.1818 71.91 32.8218 71.91C33.2885 71.91 33.6518 72.07 33.9118 72.39C34.1785 72.71 34.3118 73.1267 34.3118 73.64V76.41C34.3118 76.6433 34.2285 76.8167 34.0618 76.93C33.9018 77.0367 33.6552 77.09 33.3218 77.09V73.71C33.3218 73.0767 33.0652 72.76 32.5518 72.76C32.2718 72.76 32.0318 72.8567 31.8318 73.05C31.6385 73.2367 31.5418 73.5 31.5418 73.84V76.41C31.5418 76.65 31.4618 76.8233 31.3018 76.93C31.1418 77.0367 30.8985 77.09 30.5718 77.09V73.71C30.5718 73.4167 30.5085 73.1867 30.3818 73.02C30.2552 72.8467 30.0585 72.76 29.7918 72.76C29.4985 72.76 29.2552 72.8667 29.0618 73.08C28.8752 73.2867 28.7818 73.55 28.7818 73.87V76.41C28.7818 76.6433 28.6985 76.8167 28.5318 76.93C28.3718 77.0367 28.1252 77.09 27.7918 77.09V72.72ZM37.4571 77.09C37.0371 77.09 36.6605 77.0133 36.3271 76.86C35.9938 76.7067 35.7305 76.4967 35.5371 76.23C35.3505 75.9567 35.2571 75.6533 35.2571 75.32V73.75C35.2571 73.41 35.3505 73.1 35.5371 72.82C35.7238 72.54 35.9838 72.32 36.3171 72.16C36.6505 71.9933 37.0305 71.91 37.4571 71.91C37.8838 71.91 38.2638 71.9933 38.5971 72.16C38.9305 72.32 39.1905 72.54 39.3771 72.82C39.5705 73.1 39.6671 73.41 39.6671 73.75V75.32C39.6671 75.6533 39.5705 75.9567 39.3771 76.23C39.1905 76.4967 38.9271 76.7067 38.5871 76.86C38.2538 77.0133 37.8771 77.09 37.4571 77.09ZM37.4571 76.23C37.8371 76.23 38.1371 76.1433 38.3571 75.97C38.5771 75.79 38.6871 75.5533 38.6871 75.26V73.79C38.6871 73.4833 38.5738 73.2367 38.3471 73.05C38.1271 72.8633 37.8305 72.77 37.4571 72.77C37.0838 72.77 36.7838 72.8633 36.5571 73.05C36.3371 73.2367 36.2271 73.4833 36.2271 73.79V75.26C36.2271 75.5533 36.3371 75.79 36.5571 75.97C36.7771 76.1433 37.0771 76.23 37.4571 76.23ZM40.6922 70.64C40.6922 70.1533 41.0289 69.91 41.7022 69.91V72.31C41.5889 72.41 41.5189 72.48 41.4922 72.52L41.5222 72.57C41.7156 72.37 41.9556 72.21 42.2422 72.09C42.5356 71.97 42.8156 71.91 43.0822 71.91C43.6756 71.91 44.1489 72.07 44.5022 72.39C44.8556 72.71 45.0322 73.1333 45.0322 73.66V75.33C45.0322 75.67 44.9489 75.9733 44.7822 76.24C44.6156 76.5067 44.3856 76.7167 44.0922 76.87C43.7989 77.0167 43.4722 77.09 43.1122 77.09C42.4522 77.09 41.9056 76.8033 41.4722 76.23L41.4322 76.27C41.4856 76.3433 41.5522 76.4267 41.6322 76.52C41.6322 76.7133 41.5556 76.8567 41.4022 76.95C41.2556 77.0433 41.0189 77.09 40.6922 77.09V70.64ZM42.8622 76.22C43.2489 76.22 43.5422 76.14 43.7422 75.98C43.9489 75.8133 44.0522 75.5767 44.0522 75.27V73.71C44.0522 73.4167 43.9456 73.19 43.7322 73.03C43.5256 72.8633 43.2389 72.78 42.8722 72.78C42.5456 72.78 42.2656 72.8667 42.0322 73.04C41.8056 73.2133 41.6922 73.4233 41.6922 73.67V75.32C41.6922 75.5733 41.8022 75.7867 42.0222 75.96C42.2489 76.1333 42.5289 76.22 42.8622 76.22ZM46.9884 71.25C46.7884 71.25 46.6184 71.1867 46.4784 71.06C46.3384 70.9333 46.2684 70.7733 46.2684 70.58C46.2684 70.3867 46.3384 70.2267 46.4784 70.1C46.6184 69.9733 46.7884 69.91 46.9884 69.91C47.1884 69.91 47.3551 69.9733 47.4884 70.1C47.6284 70.2267 47.6984 70.3867 47.6984 70.58C47.6984 70.7733 47.6284 70.9333 47.4884 71.06C47.3551 71.1867 47.1884 71.25 46.9884 71.25ZM46.4884 72.59C46.4884 72.35 46.5684 72.1767 46.7284 72.07C46.8951 71.9633 47.1451 71.91 47.4784 71.91V76.41C47.4784 76.6433 47.3951 76.8167 47.2284 76.93C47.0684 77.0367 46.8217 77.09 46.4884 77.09V72.59ZM50.5423 77.09C50.029 77.09 49.6456 76.95 49.3923 76.67C49.139 76.3833 49.0123 76.01 49.0123 75.55V70.59C49.0123 70.35 49.0923 70.1767 49.2523 70.07C49.419 69.9633 49.6723 69.91 50.0123 69.91V75.51C50.0123 75.7633 50.0623 75.9467 50.1623 76.06C50.269 76.1667 50.4423 76.22 50.6823 76.22C50.929 76.22 51.1623 76.1567 51.3823 76.03C51.4823 76.1433 51.5323 76.2767 51.5323 76.43C51.5323 76.6033 51.4423 76.7567 51.2623 76.89C51.089 77.0233 50.849 77.09 50.5423 77.09ZM54.3345 77.09C53.9278 77.09 53.5612 77.01 53.2345 76.85C52.9078 76.69 52.6512 76.47 52.4645 76.19C52.2778 75.91 52.1845 75.5967 52.1845 75.25V73.82C52.1845 73.46 52.2812 73.1367 52.4745 72.85C52.6745 72.5567 52.9378 72.3267 53.2645 72.16C53.5912 71.9933 53.9478 71.91 54.3345 71.91C54.7212 71.91 55.0745 71.99 55.3945 72.15C55.7145 72.31 55.9678 72.5333 56.1545 72.82C56.3412 73.1 56.4345 73.42 56.4345 73.78V74.4C56.4345 74.5133 56.3878 74.6133 56.2945 74.7C56.2078 74.78 56.1012 74.82 55.9745 74.82H53.1545V75.2C53.1545 75.52 53.2545 75.78 53.4545 75.98C53.6545 76.1733 53.9478 76.27 54.3345 76.27C54.7212 76.27 55.0112 76.1867 55.2045 76.02C55.4045 75.8467 55.5045 75.62 55.5045 75.34C55.7445 75.32 55.9412 75.36 56.0945 75.46C56.2478 75.5533 56.3245 75.6967 56.3245 75.89C56.3245 76.0967 56.2312 76.2933 56.0445 76.48C55.8645 76.66 55.6212 76.8067 55.3145 76.92C55.0145 77.0333 54.6878 77.09 54.3345 77.09ZM55.5245 74.07V73.78C55.5245 73.4667 55.4145 73.2133 55.1945 73.02C54.9745 72.82 54.6878 72.72 54.3345 72.72C53.9812 72.72 53.6945 72.82 53.4745 73.02C53.2612 73.2133 53.1545 73.4667 53.1545 73.78V74.07H55.5245Z"
        fill="white" />
    <defs>
        <filter color-interpolation-filters="sRGB" filterUnits="userSpaceOnUse" height="11.1797"
            id="filter0_i_965_35" width="34.8359" x="24.6914" y="59.9102">
            <feFlood flood-opacity="0" result="BackgroundImageFix" />
            <feBlend in="SourceGraphic" in2="BackgroundImageFix" mode="normal" result="shape" />
            <feColorMatrix in="SourceAlpha" result="hardAlpha" type="matrix"
                values="0 0 0 0 0 0 0 0 0 0 0 0 0 0 0 0 0 0 127 0" />
            <feOffset dy="4" />
            <feGaussianBlur stdDeviation="2" />
            <feComposite in2="hardAlpha" k2="-1" k3="1" operator="arithmetic" />
            <feColorMatrix type="matrix" values="0 0 0 0 0 0 0 0 0 0 0 0 0 0 0 0 0 0 0.25 0" />
            <feBlend in2="shape" mode="normal" result="effect1_innerShadow_965_35" />
        </filter>
    </defs>
</svg>
